<svg version="1.1" id="レイヤー_1" xmlns="http://www.w3.org/2000/svg" x="0" y="0" viewBox="0 0 410 66" xml:space="preserve"><style>.st0{fill:#040000}</style><path class="st0" d="M248.8 18.6c-1 1.6-2.4 3.1-2.7 3.4 1.6 3.4 1.6 7.7 1.6 8.8 0 1.8-.2 4.8-1 6.6-.7 1.8-1.6 2.8-4 2.8-.4 0-.6 0-.9-.1l-1.1-2.5c.3.1.9.2 1.8.2s1.8-.1 2.3-2.3c.4-2 .5-4.2.5-6.2-1 1.4-2.2 2.9-3.8 4.1l-2.1-1.6c3.3-2.1 4.7-4.7 5.5-6-.2-.9-.3-1.4-.6-2.2-1.3 1.1-2.4 1.7-2.9 2l-1.9-1.9c.6-.2 2-.7 3.8-2.3-1-1.8-1.9-2.7-2.4-3.1l1.8-1.7c.4.5 1.2 1.4 2.2 3.1 1.2-1.3 1.7-2.2 2.2-3.2l2.2 1.3c.2.1.3.2.3.4 0 .4-.5.4-.8.4zm13.9 21.7c-1.6-.9-4.9-3.4-6.6-7.4-.7 1.8-2.1 5.4-7.8 7.6l-1.8-2.2c1.7-.2 3.2-1 4.5-2.1 2.4-2.1 3-4.4 3.3-5.7h-.6c-1.4 0-4.5.2-5.4.2v-2.6c2.3.2 5.4.2 5.4.2h1c0-.2.1-.5.1-.6l.1-4.2v-.8h-.9c-1.4 0-3.6 0-5 .2v-2.6c1.4.1 3.6.2 5 .2h1c0-2.3 0-3.2-.1-4.3l2.8.4c.2 0 .5.1.5.3 0 .2-.2.3-.6.5-.1.8-.1 1.7-.1 2.7v.3h1.6c1.1 0 4.2-.1 5.3-.2v2.6c-1.7-.2-3.5-.2-5.3-.2h-1.6v.7l-.1 4.3v.6h1.9c.9 0 3.6-.1 5.5-.2v2.6c-1-.1-2.4-.2-5.5-.2h-1.4c1.8 5 5.2 6.8 7.4 8l-2.6 1.9zm-10.9-12.4c-.5-1.4-1.2-2.4-2.5-3.7l2-1.3c1.4 1.3 2.3 2.6 2.7 3.5l-2.2 1.5zm10.4-3.2c-.6 1.6-1.5 2.7-2.1 3.4l-2.2-1.1c1.1-1.2 2-2.5 2.3-4.1l2.4 1c.1 0 .3.2.3.3.1.5-.4.5-.7.5zM288.8 23c-.1 1.7-.1 4.6-.1 5.3v5c0 2.4.1 4.7.3 7.1h-3.1c.1-.5.2-2.4.2-2.9h-15.3c0 .3.1 1.8.1 2.1 0 .3.1.5.1.8h-3.1c.1-1.5.2-3.9.2-5.4 0-.1.1-1.2.1-1.3V28c0-.2-.2-6-.2-6.1l3 .2c.6 0 .8.2.8.4 0 .3-.6.7-.8.8 0 1-.2 4.7-.2 5.8V35h6.2V24c0-1.6-.1-5.9-.2-7.6l3.2.2c.3 0 .6.1.6.4 0 .3-.2.4-.8.7-.1 1.6-.2 4.6-.2 6.2v11h6.4v-6.2c0-1.2-.1-6.2-.2-7.2l2.8.2c.8.1 1 .1 1 .5.1.3 0 .3-.8.8zM315.3 40.6c-1.1-.1-2.9-.3-5.9-1.2-2.4-.8-3.3-1.4-5.1-2.6-.6.4-1.7 1.2-4.1 2.2-2.7 1.1-5.1 1.6-6.3 1.8l-1.7-2.7c2.8-.2 7-.9 10.2-3.1-2.1-2.4-3.3-4.8-3.6-5.7l2.3-.9c.4 1.4 1.5 3.5 3.2 5.1 1.7-1.5 3.3-3.6 4.3-5.2h-7.8c-2 0-4 .1-5.9.3V26c2.2.1 4.2.2 6.1.2h2.3v-3.4h-2.8c-2.6 0-5.5.1-8.1.2v-2.6c2.6.2 6.7.2 8.1.2h2.8c0-1.2 0-1.7-.1-4.5l3.3.3s.3.1.3.4c0 .3-.2.4-.8.7-.1 1.8-.1 2.1-.1 3.1h2.5c.7 0 5.1 0 8.2-.2V23c-3.6-.2-7.9-.2-8.2-.2h-2.5v3.4c2.7 0 3.6-.1 5.3-.3l1.2 1.4c-.6 1-3.2 5-6.5 7.8 2.6 1.9 6.9 2.9 10.6 2.8l-1.2 2.7zM336.4 21.6h-12.6v4c0 8.4-1.4 11.2-3.2 13.9l-2.6-1.4c1.7-2 3.3-4.7 3.3-12.5 0-3.6-.2-5.2-.4-6.3 1.3.1 5.1.1 5.3.1.2 0 1.2.1 1.4.1h2.9c0-.9-.1-2.3-.1-3.1l2.9.2c.7.1.9.1.9.4 0 .2-.2.3-.3.4-.1.1-.5.3-.6.3 0 .2-.1 1.5-.1 1.8h3.2c.9 0 5.8-.2 6.8-.3V22c-.9-.3-5.7-.4-6.8-.4zm.4 5.6h-3.6V30h2.1c.9 0 4.6-.1 5.4-.2 0 .4-.1 2.9-.1 3.3v3.6c0 .9.1 2.8.1 3.7h-2.8c.1-.5.1-.8.1-1.5h-10.7c0 .6 0 .9.1 1.5h-2.7c.1-.8.2-3.3.2-4.1v-3.5c0-.8 0-1.2-.1-3.1 1.3.1 4.1.2 5.9.2v-2.7c0-1-.1-4.1-.1-5l3 .2c.2 0 .7.1.7.4 0 .3-.3.4-1 .7v1.4h3.6c.6 0 2.9-.1 4.2-.2v2.4c-.4.2-4.1.1-4.3.1zm1.2 4.9h-10.7v4.8H338v-4.8z"/><path fill="#054993" d="M21.9 50.8V35.7H8.3V20.8L0 29.1v21.7z"/><path fill="#d41619" d="M13.4 15.7v15.1H27v14.9l8.2-8.3V15.7z"/><g><path class="st0" d="M74.5 0h-12L46.8 22.7v17.4l5.7-8.3v33.4h10.2V17z"/><path class="st0" d="M100.6 41h24.1l2.7-9.7h-26.8V20h24.2l2.6-9.5h-26.8V0H90.3v10.5H70.8L68.2 20h22v11.3H68.3L65.6 41h24.7v13.7H68.1l-2.9 10.5h59.6l2.8-10.5h-27z"/></g><g><path class="st0" d="M158.3 18.2h-8V.1h-10.4v18.1h-5.2L132 28.7h7.9v36.5h10.4V28.7h5.2zM188.7 29.8v3.8h-2.4l-1.9 7.9h4.3v13.3h-3.1l-2.8 10.4h4.5c6.4-.3 9.6-3.6 9.9-8.1V41.5h6v13.3h-3.3l-2.8 10.4h5.1c6.4-.3 8.9-3.6 9.2-8.1V33.5h-14v-3.8l-8.7.1z"/><path class="st0" d="M160.8 29.8v3.8H158l-1.9 7.9h4.6v13.3H157l-2.8 10.4h5.1c6.4-.3 9.6-3.6 9.9-8.1V41.5h6v13.3h-3.3l-2.8 10.4h5.1c6.4-.3 8.9-3.6 9.2-8.1V33.5h-14v-3.8l-8.6.1zM188.7 18.2h11.1v-3.9h-13.2V17c0 7.5-6.9 11-12.5 11h-13.4v-9.9h15.7v-3.8h-18.1l2.4-9.2h15.7V0h10.2v5.2h22v15.2c-.3 4.8-2.6 7.6-8.7 7.6h-11.1l-.1-9.8z"/></g><g><path class="st0" d="M241.3 50.6V48h.9c.3 0 .3.1 0 .3v2.3h1.2v.9h-1.2v3.9l1.5-.4v1l-3.4 1.2c0 .3-.1.3-.2.2l-.4-1.2 1.5-.4v-4.2h-1.3v-.9h1.4zm8.7 2.9v4.8c0 .4-.2.6-.6.6H248l-.2-.9h1c.1 0 .2-.1.2-.2v-4.3h-5.5v-.9h7.5v.9h-1zm-5.8-1.1l-.3-1c1.6-.2 2.5-.7 2.8-1.5h-2.5V49h2.6v-1.3h.9c.3 0 .3.1 0 .3v1h2.8v.9h-2.7c.5.7 1.5 1.2 2.9 1.4l-.2 1c-1.5-.2-2.5-.7-3.2-1.5-.7.8-1.7 1.4-3.1 1.6zm1.1 4.8v.4h-.8v-3.3h3.4v2.9h-2.6zm0-.8h1.7v-1.3h-1.7v1.3zM258.7 49.6v2.8h3.8v1.1h-3.8V57h4.9v1.1h-10.7V57h4.6v-3.5h-3.4v-1.1h3.4v-2.8h-4v-1.1h9.7v1.1h-4.5zm1.6 4.2c.6.4 1.2 1.1 1.8 1.9l-1.1.7c-.5-.8-1-1.4-1.6-1.9l.9-.7zM266.6 58.8l-.7-.9c1.1-.6 1.9-1.4 2.5-2.2l.9.5c.2.1.1.2-.1.3-.6.7-1.4 1.5-2.6 2.3zm.6-3.7v.5h-1v-7.2h.9c.3 0 .3.1 0 .3v5.4h9.2v.9h-4.6v4h-1.1v-3.8h-3.4zm1.2-1.5v-5.7h6.3v5.7h-6.3zm1-4.2h4.3v-.8h-4.3v.8zm0 1.6h4.3v-.8h-4.3v.8zm0 1.8h4.3v-.9h-4.3v.9zm4.1 2.7c.7.7 1.6 1.3 2.9 2l-.6 1c-1.1-.5-2.2-1.3-3.2-2.3l.9-.7zM281 50.6c.5 1.2.7 2.6.6 4.3-.1 2.7-.6 4-1.6 4h-1l-.1-.9h1c.5 0 .8-1 .9-3v-.8c-.6.8-1.3 1.6-2.2 2.2l-.4-1c.9-.5 1.8-1.3 2.5-2.5 0-.5-.1-1-.2-1.4-.2.3-.8.8-1.7 1.3l-.5-.9c.6-.3 1.2-.8 1.8-1.4-.6-.9-1.1-1.5-1.5-1.9l.7-.6c.7.6 1.2 1.1 1.5 1.7.3-.4.7-1 1.2-1.8l.7.6c.2.1.1.2-.1.2-.6.4-1 1.1-1.6 1.9zm.5 7.3c2.2-.7 3.3-1.9 3.4-3.6h-2.8v-.9h2.9v-3h-2.8v-.9h2.8v-1.9h.9c.3 0 .3.1 0 .3v1.6h2.8v.9H286v3h3.3v.9h-3.1c.5 1.5 1.6 2.6 3.4 3.4l-.6 1.1c-1.6-.7-2.7-1.9-3.3-3.4-.4 1.6-1.6 2.8-3.8 3.6l-.4-1.1zm2-7.3c.4.7.7 1.3.8 1.9l-1 .4c-.2-.7-.4-1.3-.7-1.9l.9-.4zm3.1 2.2c.4-.8.6-1.5.8-2.1l.9.3c.3.1.3.2 0 .3-.1.6-.4 1.2-.8 1.9l-.9-.4zM301.5 50.4v8h-1.1v-.8h-7.6v1h-1.1V50h1.1c.3.1.3.2 0 .4v6.1h3.2v-8.6h1.1c.3.1.3.2 0 .4v8.2h3.3V50h1.1c.2.1.3.2 0 .4zM312.3 56.5c.1 0 .2-.1.2-.2v-3.5h-2.8V59h-1.1v-6.2H306v4.8h-1.1v-5.8h3.7v-1.5h-5v-.9h5v-1.6h1.1c.3 0 .3.1 0 .3v1.3h5.1v.9h-5.1v1.5h3.9v5c0 .5-.3.8-.8.8h-1.3l-.1-1.1h.9zM322.4 47.4c.3 0 .3.1 0 .3v.7h4.9v2.1h-1v-1.3h-8.8v1.4h-1v-2.2h4.9v-1h1zm4.1 11.3h-1v-.3h-7v.5h-1v-4.5h9v4.3zm-.7-7.8h-7.6v-.8h7.6v.8zm-4.3 5.2v-.9h-3v.9h3zm0 1.5v-.9h-3v.9h3zm3.8-6v2.2h-6.7v-2.2h6.7zm-1 1.6v-1h-4.7v1h4.7zm1.2 2.9v-.9h-3v.9h3zm0 1.5v-.9h-3v.9h3zM340 51.2v1.1h-4.8V57h4.1v1.1h-9.4V57h4.2v-4.7h-4.8v-1.1h4.8V48h1.1c.3.1.3.2 0 .4v2.7h4.8zM348.1 54.8h-1.2c.1 2.5-1.5 3.9-4.7 4.2l-.3-1.1c2.8-.2 4.1-1.3 4-3.1h-1.2v.5h-1V48h7.6v7.3h-1v-.5h-1.2v2.5c0 .3.1.4.3.4h1.8c.3 0 .5-.1.6-.4l.1-.7 1.1.3-.2.8c-.1.6-.5.9-1.2.9H349c-.6 0-.9-.3-.9-.8v-3zm-3.4-4.9h5.6v-1h-5.6v1zm0 1.9h5.6v-.9h-5.6v.9zm0 2.1h5.6v-1.1h-5.6v1.1zM357.2 49h.6v8.6h-1.1V51h-1.5v-.6h.4c.5 0 .8-.1 1.1-.4.3-.3.5-.6.5-1zM360.6 52.9h5.7v.8h-5.7v-.8zM367.4 52.1c0-1 .3-1.8.8-2.3.4-.4.9-.6 1.5-.6.7 0 1.3.2 1.7.6s.6 1 .6 1.6c0 .8-.2 1.5-.7 2.1-.5.6-.9 1.1-1.4 1.6-.3.3-.5.6-.8.9-.2.3-.4.5-.6.8h3.7v.9h-5.1v-.8c.1-.3.3-.8.8-1.4.8-.9 1.5-1.6 2-2.2.6-.6.8-1.2.8-1.9 0-.4-.1-.7-.4-1-.2-.2-.4-.3-.7-.3-.3 0-.5.1-.7.3-.4.4-.5.9-.5 1.7h-1zM373.8 49.2h4.7v1.1l-2.4 7.4H375l2.4-7.6h-3.6v-.9zM379.7 52.9h5.7v.8h-5.7v-.8zM386.5 52.1c0-1 .3-1.8.8-2.3.4-.4.9-.6 1.5-.6.7 0 1.3.2 1.7.6s.6 1 .6 1.6c0 .8-.2 1.5-.7 2.1-.5.6-.9 1.1-1.4 1.6-.3.3-.5.6-.8.9-.2.3-.4.5-.6.8h3.7v.9h-5.1v-.8c.1-.3.3-.8.8-1.4.8-.9 1.5-1.6 2-2.2.6-.6.8-1.2.8-1.9 0-.4-.1-.7-.4-1-.2-.2-.4-.3-.7-.3-.3 0-.5.1-.7.3-.4.4-.5.9-.5 1.7h-1zM392.9 51.6c0-.8.2-1.4.7-1.9.4-.4 1-.6 1.6-.6.7 0 1.3.2 1.7.6.4.4.6.9.6 1.6 0 .7-.2 1.2-.5 1.5-.2.2-.5.4-.7.4.3.1.6.3.8.5.4.4.6.9.6 1.6 0 .7-.2 1.3-.7 1.8s-1.1.7-1.9.7c-.7 0-1.3-.2-1.7-.7s-.7-1-.7-1.6V55h1.1v.3c0 .4.1.8.4 1.1.2.2.5.3.8.3.4 0 .8-.1 1-.4.3-.3.4-.7.4-1.2s-.1-.8-.4-1.1c-.3-.3-.6-.4-.9-.4h-.4v-.8h.3c.3 0 .6-.1.8-.4.3-.3.4-.6.4-1.1 0-.4-.1-.8-.4-1-.2-.2-.5-.3-.8-.3-.3 0-.6.1-.8.3-.3.3-.4.7-.4 1.3h-.9z"/></g></svg>