<svg version="1.1" id="レイヤー_1" xmlns="http://www.w3.org/2000/svg" x="0" y="0" viewBox="0 0 410 66" xml:space="preserve"><style>.st0{fill:#040000}</style><path class="st0" d="M262.6 40.1c-1.4-.5-4.2-1.6-7.2-4.4-1.3-1.2-2-2.3-2.1-2.5.1 4.6.1 5.1.2 7.2h-2.8c.1-1.1.2-6 .2-7.3-1.3 1.7-3.2 3.4-4.7 4.6-2.1 1.6-3.2 2-4.1 2.3l-1.6-2c1.4-.4 2.9-.9 5.2-2.9.6-.6 2.1-1.8 2.9-3-3.1 0-3.5 0-5.1.1.1-1 .1-2.7.1-3.8v-3.1c0-.9 0-2.2-.1-3.1.8.1 4.5.1 5.2.1h2.2V20.6h-2.7c-2.6 0-5.2.1-7.8.2v-2.6c2.7.2 6.6.2 7.8.2h2.6c0-.9 0-1.2-.1-2.5l2.8.2c.4 0 .6.1.6.3 0 .3-.2.4-.9.7v1.3h2.7c2.7 0 5.3-.1 7.9-.2V21c-3.4-.2-7.6-.2-7.9-.2h-2.7v1.7h2.1c1.6 0 3.8 0 5.3-.1-.1 1.1-.1 2.3-.1 3.4v3.1c0 .8.1 2.1.1 3.5-2-.1-3.8-.1-4.8-.1h-.5c.8 1.1 2.7 3.8 8.8 5.7l-1.5 2.1zM251 24.4h-5v2.1h5v-2.1zm0 3.9h-5v2.1h5v-2.1zm7.3-3.9h-5v2.1h5v-2.1zm0 3.9h-5v2.1h5v-2.1zM288.3 40.1c-1.4-.7-6.3-3.1-8.4-10-2.9 4.6-7.2 8.1-11.8 9.9l-2.1-2.5c7.8-2 12.8-9.5 14.3-14.4h-5.7c-1.4 2.3-3.1 4.3-5.1 6l-2.6-1.7c1-.6 3.1-2 5.1-5.2 1.7-2.7 2.4-5.1 2.7-6.1l3.4 1c.1 0 .3.1.3.4 0 .5-.5.5-1.2.6-.4 1-.8 1.8-1.3 2.8h2.7c1.3 0 2 0 4.6-.2l.9.9c-.6 1.4-1.3 3.1-2.4 5.4.6 3.5 2.4 6 3.9 7.6 1.7 1.8 3.8 2.6 5.2 3.1l-2.5 2.4zM301.9 27.4c-.1-.6-.2-1.1-.3-1.6-.9.4-5.7 2.1-7 2.4-.2.5-.2.7-.5.7s-.4-.3-.4-.5l-.8-2.4c.4-.1.5-.1 1.7-.4V22c0-2.2 0-3.5-.2-4.2 2 .1 4.8-.2 7.7-1.6l1.8 1.6c.1.1.2.2.2.3 0 .3-.3.3-.4.3-.2 0-.3 0-.5-.1-1.4.5-3.7 1.4-6.4 1.7v5c1.5-.3 3.7-1 4-1.1-.6-1.2-1.2-1.7-1.6-2.1l2.1-.9c1.3 1.5 2.2 3.7 2.8 5.3l-2.2 1.2zm9.6 12.9c.1-.5.1-.6.1-1.1h-13.8c0 .2.1 1 .1 1.1h-2.7c.1-1.6.1-2.7.1-3.9v-3.8c0-.3-.1-2.4-.1-3.8 1.5.1 4.7.2 6.3.2h6.4c1.6 0 3.5-.1 6.3-.2 0 .8-.1 3.3-.1 3.8v4.2c0 1 0 1.6.1 3.4h-2.7zm-8-9.3h-5.8v2.1h5.8V31zm0 4.1h-5.8v2.3h5.8v-2.3zm12.3-14.7c-.1 1.1-.2 4.4-1.2 6.4-.6 1.2-2.1 1.4-3.1 1.4-.3 0-.6 0-.8-.1l-1.5-2.6c.8.1 2 .3 2.3.3.4 0 .9 0 1.3-1.2.4-1 .6-2.3.8-5.1h-4.2c-.1 6-3.4 8.6-4.1 9.1l-2.1-1.4c1.3-.9 3.6-2.7 3.8-7.7-.3 0-2.3.1-2.4.1v-2.4c1.6.1 1.9.1 4.2.1h3.4c1.2 0 3.1 0 3.7-.1 0 .3 0 .6-.1 3.2zm-4 10.6H306v2.1h5.8V31zm0 4.1H306v2.3h5.8v-2.3zM341.4 37c-3.8-1.8-7-4.6-9.3-8.1v.7c0 3.7.2 7.3.3 11h-3.1c.1-1.8.3-7.1.3-10v-1.2c-1 1.8-4.2 5.9-9 8.1l-2.2-2.1c3.6-1.2 7.6-4 9.9-8.6H327c-2.1 0-5.8.1-7.9.3v-2.7c1.8.2 6.1.2 8.1.2h2.5v-1c0-2.2 0-5.2-.1-7.3l3.1.2c.3 0 .4.2.4.4 0 .3-.6.6-.8.6-.1 1.8-.1 4.2-.1 6.1v1h3.1c.7 0 3.8-.1 4.4-.1 1.3-.1 2.1-.1 3.2-.2V27c-1.7-.1-5.7-.2-7.6-.2h-1.6c.7 1.1 2.1 3.3 4.8 5.4 2.2 1.8 4.1 2.5 5 2.8l-2.1 2zm-15.8-13.6c-1.1-2.3-2-3.5-3.6-4.8l2.1-1.5c1.7 1.5 2.8 2.7 3.6 4.7l-2.1 1.6zm13.7-3.9c-1 1.7-2.1 2.9-3.1 3.9l-2.4-1.2c2-2 2.7-3.1 3.5-5l2.8 1.5c.2.1.2.3.2.4.1.3-.4.3-1 .4zM368 40.6c-1.1-.1-2.9-.3-5.9-1.2-2.4-.8-3.3-1.4-5.1-2.6-.6.4-1.7 1.2-4.1 2.2-2.7 1.1-5.1 1.6-6.3 1.8l-1.7-2.7c2.8-.2 7-.9 10.2-3.1-2.1-2.4-3.3-4.8-3.6-5.7l2.3-.9c.4 1.4 1.5 3.5 3.2 5.1 1.7-1.5 3.3-3.6 4.3-5.2h-7.8c-2 0-4 .1-5.9.3V26c2.2.1 4.2.2 6.1.2h2.3v-3.4h-2.8c-2.6 0-5.5.1-8.1.2v-2.6c2.6.2 6.7.2 8.1.2h2.8c0-1.2 0-1.7-.1-4.5l3.3.3s.3.1.3.4c0 .3-.2.4-.8.7-.1 1.8-.1 2.1-.1 3.1h2.5c.7 0 5.1 0 8.2-.2V23c-3.6-.2-7.9-.2-8.2-.2h-2.5v3.4c2.7 0 3.6-.1 5.3-.3l1.2 1.4c-.6 1-3.2 5-6.5 7.8 2.6 1.9 6.9 2.9 10.6 2.8l-1.2 2.7zM389.1 21.6h-12.6v4c0 8.4-1.4 11.2-3.2 13.9l-2.6-1.4c1.7-2 3.3-4.7 3.3-12.5 0-3.6-.2-5.2-.4-6.3 1.3.1 5.1.1 5.3.1.2 0 1.2.1 1.4.1h2.9c0-.9-.1-2.3-.1-3.1l2.9.2c.7.1.9.1.9.4 0 .2-.2.3-.3.4-.1.1-.5.3-.6.3 0 .2-.1 1.5-.1 1.8h3.2c.9 0 5.8-.2 6.8-.3V22c-.9-.3-5.7-.4-6.8-.4zm.4 5.6h-3.6V30h2.1c.9 0 4.6-.1 5.4-.2 0 .4-.1 2.9-.1 3.3v3.6c0 .9.1 2.8.1 3.7h-2.8c.1-.5.1-.8.1-1.5H380c0 .6 0 .9.1 1.5h-2.7c.1-.8.2-3.3.2-4.1v-3.5c0-.8 0-1.2-.1-3.1 1.3.1 4.1.2 5.9.2v-2.7c0-1-.1-4.1-.1-5l3 .2c.2 0 .7.1.7.4 0 .3-.3.4-1 .7v1.4h3.6c.6 0 2.9-.1 4.2-.2v2.4c-.4.2-4.1.1-4.3.1zm1.2 4.9H380v4.8h10.7v-4.8z"/><g><path fill="#054993" d="M21.9 50.8V35.7H8.3V20.8L0 29.1v21.7z"/><path fill="#d41619" d="M13.4 15.7v15.1H27v14.9l8.2-8.3V15.7z"/></g><g><path class="st0" d="M74.5 0h-12L46.8 22.7v17.4l5.7-8.3v33.4h10.2V17z"/><path class="st0" d="M100.6 41h24.1l2.7-9.7h-26.8V20h24.2l2.6-9.5h-26.8V0H90.3v10.5H70.8L68.2 20h22v11.3H68.3L65.6 41h24.7v13.7H68.1l-2.9 10.5h59.6l2.8-10.5h-27z"/></g><g><path class="st0" d="M158.3 18.2h-8V.1h-10.4v18.1h-5.2L132 28.7h7.9v36.5h10.4V28.7h5.2zM188.7 29.8v3.8h-2.4l-1.9 7.9h4.3v13.3h-3.1l-2.8 10.4h4.5c6.4-.3 9.6-3.6 9.9-8.1V41.5h6v13.3h-3.3l-2.8 10.4h5.1c6.4-.3 8.9-3.6 9.2-8.1V33.5h-14v-3.8l-8.7.1z"/><path class="st0" d="M160.8 29.8v3.8H158l-1.9 7.9h4.6v13.3H157l-2.8 10.4h5.1c6.4-.3 9.6-3.6 9.9-8.1V41.5h6v13.3h-3.3l-2.8 10.4h5.1c6.4-.3 8.9-3.6 9.2-8.1V33.5h-14v-3.8l-8.6.1zM188.7 18.2h11.1v-3.9h-13.2V17c0 7.5-6.9 11-12.5 11h-13.4v-9.9h15.7v-3.8h-18.1l2.4-9.2h15.7V0h10.2v5.2h22v15.2c-.3 4.8-2.6 7.6-8.7 7.6h-11.1l-.1-9.8z"/></g><g><path class="st0" d="M246 49.7v.8h3.4v4.7h-1v-.3h-2c1.4 1.2 3 2 4.8 2.4l-.5 1.2c-1.5-.4-3.1-1.3-4.7-2.8V59h-1v-3.1c-1.2 1.3-2.7 2.2-4.5 2.8l-.5-1c2-.6 3.6-1.5 4.7-2.7h-2.1v.4h-1v-4.8h3.4v-.8h-4.9v-.9h4.9v-1.1h.9c.3 0 .3.1 0 .3v.8h4.8v.9H246zm-3.4 2.6h2.4v-1h-2.4v1zm0 1.8h2.4v-1h-2.4v1zm3.4-1.8h2.4v-1H246v1zm0 1.8h2.4v-1H246v1zM253.3 58.5l-.6-1.1c1.3-.6 2.3-1.3 3-2.2l.9.8c.1.2 0 .2-.3.2-.8.9-1.8 1.7-3 2.3zm5.5-10.5v1h5v.9h-11V49h4.9v-1.4h1.1c.2 0 .3.2 0 .4zm2.2 6.5h-2.1v3.7c0 .5-.3.8-.8.8h-1.3l-.2-1.1h1.1c.1 0 .2-.1.2-.2v-3.2h-2.5v.4h-1v-4h7.6v3.9h-1v-.3zm-5.6-2.7v1.7h5.6v-1.7h-5.6zm7.6 6.6c-1.4-.5-2.4-1.3-3.2-2.5l.9-.7c.7.9 1.7 1.6 3 2.1l-.7 1.1zM270.4 49.9c.3-.4.6-1 .9-1.7l.9.6c.2.2.2.3-.1.3-.5.8-1 1.6-1.6 2.2h1.6v.9h-2.3c-.4.4-.7.7-1.1 1h2.8v5.6h-1v-.6H268v.8h-1v-4.3c-.5.3-.9.6-1.4.8l-.4-1c1.1-.4 2.3-1.2 3.4-2.2h-2.8v-.9h2.3V50h-1.8v-1h1.8v-1.6h.9c.3 0 .3.1 0 .3V49h1.5v.9zm-2.5 4.1v1.3h2.5V54h-2.5zm2.5 2.1h-2.5v1.3h2.5v-1.3zm0-6.1H269v1.3h.3c.2-.3.6-.7 1.1-1.3zm3.8 2.5l.9-3.1h-1.5V59h-1V48.4h2.7l.1-.2 1 .7-.2.2-1.1 3.2c.7.8 1.2 1.5 1.3 2.1.5 2 .1 3-1.2 3h-.8l-.2-1.1h.7c.5 0 .7-.5.4-1.5 0-.7-.4-1.5-1.1-2.3zM284.2 49.7v.8h3.4v4.7h-1v-.3h-2c1.4 1.2 3 2 4.8 2.4l-.5 1.2c-1.5-.4-3.1-1.3-4.7-2.8V59h-1v-3.1c-1.2 1.3-2.7 2.2-4.5 2.8l-.5-1c2-.6 3.6-1.5 4.7-2.7h-2.1v.4h-1v-4.8h3.4v-.8h-4.9v-.9h4.9v-1.1h.9c.3 0 .3.1 0 .3v.8h4.8v.9h-4.7zm-3.3 2.6h2.4v-1h-2.4v1zm0 1.8h2.4v-1h-2.4v1zm3.3-1.8h2.4v-1h-2.4v1zm0 1.8h2.4v-1h-2.4v1zM294.9 49.9c-.7 1.9-1.6 3.3-2.7 4.3l-.9-.8c1.6-1.5 2.6-3.5 3-5.9l1.2.4c.1.1.1.2-.1.3l-.2.8h2.8l.1-.3 1.1.6-.2.2c-.3 1.3-.7 2.4-1.1 3.3.5 1.6 1.9 3.1 4.2 4.4l-.9 1.1c-1.7-1.1-3-2.6-3.9-4.4-1.2 2.2-3.1 3.8-5.5 4.8l-.6-1.2c3.4-1.3 5.6-3.8 6.6-7.7h-2.9zM308.3 51.6l-3.8 1.7c0 .2-.1.3-.2.1l-.4-1.1.7-.2v-3.9l1 .3c1.1-.2 2.1-.4 3.1-.8l.4 1c.1.3 0 .3-.4.1-1.1.2-2.2.4-3.2.5v2.4c.8-.3 1.5-.6 2.2-.9-.1-.2-.4-.5-.9-1l.8-.6c.7.6 1.2 1.3 1.7 2.1l-.8.6-.2-.3zm5.1 2v5.1h-1v-.4h-6.3v.7h-1v-5.4h8.3zm-4.6.8h-2.6v1.1h2.6v-1.1zm0 1.9h-2.6v1.1h2.6v-1.1zm2.9-7.1c.1 2.4-1 3.8-3.3 4.2l-.3-1c1.8-.2 2.6-1.3 2.6-3.1h-1.1v-.9h4.8l-.1 3c-.1 1.1-.4 1.6-1 1.6H312l-.1-.9h.8c.3 0 .4-.1.4-.4l.2-2.3h-1.6zm.7 6.3v-1.1h-2.6v1.1h2.6zm0 .8h-2.6v1.1h2.6v-1.1zM321.5 58.9v-4.5c-1 1.5-2.4 2.7-4.4 3.7l-.6-1.2c2.1-.9 3.7-2.2 4.6-3.7h-4.5v-.9h4.9v-4.4h.9c.3 0 .3.1 0 .3v4.1h4.8v.9h-4.5c1.2 1.6 2.8 2.8 4.8 3.7L327 58c-1.8-.8-3.3-2-4.6-3.7v4.6h-.9zm-2.9-10.3c.7.7 1.3 1.4 1.6 2.2l-1.1.7c-.4-.8-.9-1.6-1.5-2.2l1-.7zm5 2.3c.5-.7.9-1.6 1.2-2.5l1.2.5c.2.1.1.2-.1.2-.3.8-.7 1.6-1.3 2.3l-1-.5zM337.8 56.5c.1 0 .2-.1.2-.2v-3.5h-2.8V59H334v-6.2h-2.5v4.8h-1.1v-5.8h3.7v-1.5h-5v-.9h5v-1.6h1.1c.3 0 .3.1 0 .3v1.3h5.1v.9h-5.1v1.5h3.9v5c0 .5-.3.8-.8.8H337l-.1-1.1h.9zM352.6 57c-2-1.3-3.6-2.9-4.7-4.8v3.1h2v.9h-2v2.7h-1v-2.7H345v-.9h1.9v-3.1c-1 2.1-2.5 3.8-4.7 5.1l-.5-1c2.3-1.2 3.9-3 4.8-5.4h-4.3V50h4.7v-2.2h.9c.3 0 .3.1 0 .3V50h4.8v.9h-4.4c1.1 2 2.8 3.7 4.9 5l-.5 1.1zM360.5 49.6h5.5v.9h-2.1V58c0 .5-.2.7-.7.7h-1.3l-.1-1.1h.9c.1 0 .2-.1.2-.2v-6.8h-2.4V57h-1v-.6h-3.6v1h-1v-9.2h5.6v1.4zm-3.3 2.1v-2.5h-1.3v2.5h1.3zm0 1h-1.3v2.8h1.3v-2.8zm2.3-3.5h-1.2v2.5h1.2v-2.5zm0 3.5h-1.2v2.8h1.2v-2.8zM370 49h.6v8.6h-1.1V51H368v-.6h.4c.5 0 .8-.1 1.1-.4.3-.3.4-.6.5-1zM373.3 52.9h5.7v.8h-5.7v-.8zM380.2 51.6c0-.8.2-1.4.7-1.9.4-.4 1-.6 1.6-.6.7 0 1.3.2 1.7.6.4.4.6.9.6 1.6 0 .7-.2 1.2-.5 1.5-.2.2-.5.4-.7.4.3.1.6.3.8.5.4.4.6.9.6 1.6 0 .7-.2 1.3-.7 1.8s-1.1.7-1.9.7c-.7 0-1.3-.2-1.7-.7s-.7-1-.7-1.6V55h1.1v.3c0 .4.1.8.4 1.1.2.2.5.3.8.3.4 0 .8-.1 1-.4.3-.3.4-.7.4-1.2s-.1-.8-.4-1.1c-.3-.3-.6-.4-.9-.4h-.4v-.8h.3c.3 0 .6-.1.8-.4.3-.3.4-.6.4-1.1 0-.4-.1-.8-.4-1-.2-.2-.5-.3-.8-.3-.3 0-.6.1-.8.3-.3.3-.4.7-.4 1.3h-.9zM386 52.9h5.7v.8H386v-.8zM395.5 49h.6v8.6H395V51h-1.5v-.6h.4c.5 0 .8-.1 1.1-.4.3-.3.4-.6.5-1z"/></g></svg>