<?xml version="1.0" encoding="UTF-8"?>
<svg id="_レイヤー_2" data-name="レイヤー 2" xmlns="http://www.w3.org/2000/svg" viewBox="0 0 319.29 149.62">
  <defs>
    <style>
      .cls-1 {
        fill: #040000;
      }

      .cls-2 {
        fill: #231815;
      }
    </style>
  </defs>
  <g id="_レイヤー_1-2" data-name="レイヤー 1">
    <g>
      <path class="cls-2" d="m58.68,138.31c0-.27.11-.4.34-.4s.34.13.34.4v4.93h5.47v-4.93c0-.27.11-.4.34-.4s.34.13.34.4v10.86c0,.27-.11.4-.34.4s-.34-.13-.34-.4v-5.33h-5.47v5.33c0,.27-.11.4-.34.4s-.34-.13-.34-.4v-10.86Z"/>
      <path class="cls-2" d="m75.95,138.31c0-.27.11-.4.34-.4s.34.13.34.4v10.86c0,.27-.11.4-.34.4s-.34-.13-.34-.4v-10.86Z"/>
      <path class="cls-2" d="m92.89,138.79c.45.45.76.94.94,1.48.04.23-.02.38-.2.47-.18.09-.34.02-.47-.2-.23-.54-.5-.97-.81-1.28-.5-.49-1.08-.74-1.75-.74-.63,0-1.24.29-1.82.88-.9.9-1.35,2.41-1.35,4.52s.4,3.44,1.21,4.25c.54.54,1.15.81,1.82.81s1.28-.27,1.82-.81c.85-.85,1.28-2.05,1.28-3.58,0-.22-.09-.34-.27-.34h-2.97c-.18,0-.27-.09-.27-.27,0-.22.09-.34.27-.34h3.31c.4,0,.61.25.61.74v4.79c0,.27-.11.4-.34.4s-.34-.13-.34-.4v-1.82c-.23.5-.5.9-.81,1.21-.67.67-1.44,1.01-2.29,1.01-.9,0-1.66-.31-2.29-.94-.94-.94-1.42-2.52-1.42-4.72s.49-3.94,1.48-4.93c.72-.72,1.51-1.08,2.36-1.08.94,0,1.71.29,2.29.88Z"/>
      <path class="cls-2" d="m108.81,138.18l3.64,10.86c.09.27.02.45-.2.54-.23.05-.38-.07-.47-.34l-1.01-3.04h-4.59l-1.08,3.1c-.09.27-.27.36-.54.27-.18-.09-.23-.25-.13-.47l3.71-10.93c.09-.18.2-.27.34-.27s.25.09.34.27Zm1.75,7.42l-2.09-6.34-2.09,6.34h4.18Z"/>
      <path class="cls-2" d="m127.71,138.79c.4.4.67.88.81,1.42,0,.23-.07.36-.2.4-.18.05-.34-.04-.47-.27-.18-.45-.43-.83-.74-1.15-.45-.45-.99-.67-1.62-.67-.67,0-1.21.2-1.62.61-.45.45-.67,1.04-.67,1.75,0,.59.16,1.04.47,1.35.36.36.83.63,1.42.81.9.27,1.53.47,1.89.61.45.18.83.43,1.15.74.49.5.74,1.15.74,1.96,0,1.04-.27,1.82-.81,2.36-.59.59-1.39.88-2.43.88-.94,0-1.69-.27-2.23-.81-.45-.45-.79-1.1-1.01-1.96-.05-.31.02-.49.2-.54.22-.04.38.07.47.34.22.77.49,1.31.81,1.62.49.5,1.08.74,1.75.74.81,0,1.44-.22,1.89-.67.45-.45.67-1.1.67-1.96,0-.58-.18-1.06-.54-1.42-.32-.31-.61-.52-.88-.61-.54-.22-1.19-.45-1.96-.67-.67-.22-1.17-.49-1.48-.81-.54-.54-.81-1.19-.81-1.96,0-.85.27-1.55.81-2.09.58-.58,1.3-.88,2.16-.88.9,0,1.64.29,2.23.88Z"/>
      <path class="cls-2" d="m138.97,138.31c0-.27.11-.4.34-.4s.34.13.34.4v4.93h5.47v-4.93c0-.27.11-.4.34-.4s.34.13.34.4v10.86c0,.27-.11.4-.34.4s-.34-.13-.34-.4v-5.33h-5.47v5.33c0,.27-.11.4-.34.4s-.34-.13-.34-.4v-10.86Z"/>
      <path class="cls-2" d="m156.25,138.31c0-.27.11-.4.34-.4s.34.13.34.4v10.86c0,.27-.11.4-.34.4s-.34-.13-.34-.4v-10.86Z"/>
      <path class="cls-2" d="m174.33,148.84c.13.23.13.4,0,.54-.18.18-.36.18-.54,0l-3.64-6.07-2.09,2.56v3.31c0,.27-.11.4-.34.4s-.34-.13-.34-.4v-10.86c0-.27.11-.4.34-.4s.34.13.34.4v6.55l5.33-6.75c.14-.13.27-.13.4,0,.18.13.18.34,0,.61l-3.17,3.98,3.71,6.14Z"/>
      <path class="cls-2" d="m184.66,138.31c0-.27.11-.4.34-.4s.34.13.34.4v6.61c0,1.62.29,2.72.88,3.31.49.5,1.12.74,1.89.74s1.39-.25,1.89-.74c.63-.63.94-1.73.94-3.31v-6.61c0-.27.11-.4.34-.4s.34.13.34.4v6.68c0,1.71-.38,2.95-1.15,3.71-.59.59-1.37.88-2.36.88s-1.78-.29-2.36-.88c-.72-.72-1.08-1.96-1.08-3.71v-6.68Z"/>
      <path class="cls-2" d="m205.71,137.91c.81,0,1.46.25,1.96.74.45.45.67,1.17.67,2.16,0,1.08-.23,1.85-.67,2.29s-1.1.67-1.96.67l2.7,5.33c.09.23.04.38-.14.47-.18.09-.34.02-.47-.2l-2.77-5.6h-2.29v5.4c0,.27-.11.4-.34.4s-.34-.13-.34-.4v-10.59c0-.45.18-.67.54-.67h3.1Zm-2.77.61c-.14,0-.2.09-.2.27v4.39h2.9c.67,0,1.19-.18,1.55-.54.31-.31.47-.92.47-1.82,0-.81-.18-1.39-.54-1.75-.36-.36-.86-.54-1.48-.54h-2.7Z"/>
      <path class="cls-2" d="m218.66,138.31c0-.27.11-.4.34-.4s.34.13.34.4v6.61c0,1.62.29,2.72.88,3.31.49.5,1.12.74,1.89.74s1.39-.25,1.89-.74c.63-.63.94-1.73.94-3.31v-6.61c0-.27.11-.4.34-.4s.34.13.34.4v6.68c0,1.71-.38,2.95-1.15,3.71-.59.59-1.37.88-2.36.88s-1.78-.29-2.36-.88c-.72-.72-1.08-1.96-1.08-3.71v-6.68Z"/>
      <path class="cls-2" d="m237.42,138.65l2.63,10.19,2.56-10.19c.14-.49.4-.74.81-.74s.61.27.61.81v10.46c0,.27-.09.4-.27.4-.27,0-.4-.13-.4-.4v-10.19c0-.13-.02-.16-.07-.07l-2.56,10.05c-.09.4-.32.61-.67.61s-.59-.2-.67-.61l-2.56-9.99c-.05-.09-.07-.09-.07,0v10.19c0,.27-.11.4-.34.4s-.34-.13-.34-.4v-10.32c0-.63.22-.94.67-.94.36,0,.58.25.67.74Z"/>
      <path class="cls-2" d="m260.36,137.91c.18,0,.27.11.27.34,0,.18-.09.27-.27.27h-4.99c-.14,0-.2.09-.2.27v4.18h4.66c.18,0,.27.11.27.34,0,.18-.09.27-.27.27h-4.66v5.2c0,.13.07.2.2.2h4.86c.18,0,.27.09.27.27,0,.23-.09.34-.27.34h-5.2c-.36,0-.54-.22-.54-.67v-10.32c0-.45.18-.67.54-.67h5.33Z"/>
    </g>
    <path class="cls-2" d="m55.82,66.29s.62.12,1.79.34c1.16.21,2.88.5,5.08.76,2.2.26,4.88.49,7.95.56,3.07.06,6.54-.02,10.26-.41,3.71-.38,7.68-1.03,11.7-2.07,4.02-1.03,8.08-2.45,11.93-4.28.24-.12.48-.23.72-.35l.09-.04s-.02,0,.02-.01l.05-.02.19-.09.37-.19c.25-.13.5-.25.74-.38.24-.13.47-.25.71-.38.23-.13.47-.25.71-.38.24-.13.48-.26.72-.4.24-.13.48-.27.72-.4.24-.14.48-.27.72-.41.97-.55,1.95-1.11,2.93-1.67.49-.28,1-.56,1.5-.84.5-.28,1.02-.56,1.54-.84,1.04-.56,2.11-1.11,3.21-1.64.27-.14.56-.26.84-.39l.85-.39c.58-.25,1.17-.49,1.76-.73,2.39-.94,5-1.71,7.76-2.19l.47-.08.24-.04.27-.04,1.09-.14c.7-.07,1.39-.14,2.1-.17.7-.05,1.4-.06,2.1-.07.7,0,1.39,0,2.08.04l.52.02c.17,0,.34.02.52.03.34.03.69.05,1.03.08l1.02.1c.34.03.67.09,1.01.13,1.34.18,2.66.41,3.94.69,2.57.54,5.01,1.25,7.33,2.04,2.33.79,4.54,1.65,6.65,2.56,1.05.46,2.09.91,3.1,1.38.51.23,1.01.47,1.51.7.49.24.98.47,1.47.7,1.92.94,3.79,1.85,5.62,2.75,1.81.88,3.6,1.7,5.34,2.47,1.74.77,3.46,1.46,5.13,2.09,3.35,1.25,6.55,2.19,9.48,2.79,1.47.3,2.87.51,4.17.66.65.08,1.28.12,1.89.17.6.03,1.18.07,1.73.07.28,0,.54.01.81.01.26,0,.51,0,.76-.01.12,0,.24,0,.36,0,.12,0,.24-.01.35-.02.23-.01.45-.02.67-.03.86-.05,1.59-.12,2.18-.2.59-.06,1.04-.14,1.35-.19.31-.05.46-.07.46-.07,0,0-.15.04-.44.12-.29.08-.72.21-1.3.34-1.15.27-2.88.62-5.16.78-.28.02-.58.05-.88.05-.3.01-.61.02-.93.04-.63,0-1.3.02-1.99,0-1.39-.03-2.88-.15-4.47-.34-1.58-.19-3.25-.49-4.97-.86-1.72-.37-3.5-.84-5.32-1.38-1.82-.54-3.67-1.18-5.55-1.87-1.88-.69-3.78-1.46-5.71-2.27-.48-.2-.97-.41-1.45-.62-.48-.21-.96-.42-1.45-.63-.96-.42-1.94-.85-2.92-1.27-1.98-.84-3.99-1.7-6.06-2.51-2.08-.8-4.2-1.58-6.39-2.26-.54-.18-1.1-.33-1.65-.5-.56-.15-1.11-.32-1.67-.45-1.12-.3-2.25-.56-3.4-.79-1.14-.23-2.3-.41-3.46-.56-1.16-.14-2.33-.24-3.49-.28-.58-.03-1.16-.02-1.75-.03-.58.02-1.16.02-1.74.07-.58.03-1.15.09-1.72.15l-.81.11-.2.03-.23.04-.47.08c-2.23.38-4.42,1-6.53,1.82-.52.21-1.05.42-1.56.64l-.78.34c-.26.11-.52.22-.77.35-1.02.48-2.03.97-3.04,1.49-1,.52-1.99,1.05-2.99,1.59-1.01.54-2.01,1.08-3.01,1.61-.25.13-.5.27-.76.4-.26.13-.51.27-.76.4-.26.13-.51.26-.76.4-.26.13-.53.26-.79.4-.26.13-.53.27-.78.39-.26.12-.51.24-.76.36l-.38.18-.19.09-.12.06-.1.04c-.27.12-.54.24-.81.35-4.29,1.88-8.78,3.24-13.16,4.15-2.19.45-4.35.81-6.46,1.06-2.11.25-4.16.41-6.12.49-.25,0-.49.02-.73.03-.24,0-.49.01-.73.02-.48,0-.96.03-1.43.02-.47,0-.94,0-1.4,0-.46-.01-.91-.02-1.36-.03-.45,0-.89-.04-1.32-.06-.22-.01-.43-.02-.65-.03-.21-.01-.43-.03-.64-.04-.42-.03-.84-.05-1.25-.09-.41-.04-.81-.07-1.2-.11-3.15-.31-5.85-.78-8.02-1.25-1.09-.24-2.05-.47-2.87-.69-.83-.21-1.52-.43-2.08-.59-.56-.17-.97-.31-1.26-.4-.28-.09-.43-.14-.43-.14Z"/>
    <path class="cls-2" d="m160.47,49.64s.46-.07,1.34-.21c.22-.03.46-.07.73-.11.27-.03.57-.06.89-.09.33-.03.67-.07,1.05-.1.37-.02.77-.04,1.19-.06.42-.02.87-.06,1.33-.05.47,0,.96,0,1.47,0,.51,0,1.04.03,1.59.05.27.01.56.02.84.04.28.02.57.05.87.07,2.35.19,4.98.56,7.78,1.15.7.15,1.41.3,2.12.48.72.18,1.45.35,2.18.56.37.1.74.2,1.11.3.37.11.74.22,1.11.33.37.11.75.22,1.13.34.37.12.75.24,1.13.36.77.24,1.51.51,2.28.77.38.13.76.27,1.15.41.39.14.76.27,1.16.43.76.29,1.52.57,2.3.88.39.15.78.31,1.17.46.39.15.78.31,1.17.47,1.56.62,3.13,1.27,4.71,1.91.79.32,1.59.65,2.39.96.8.32,1.6.64,2.4.96,1.61.63,3.24,1.25,4.88,1.83l.62.22.62.21c.41.14.83.28,1.24.42.84.26,1.67.54,2.51.78.42.12.84.26,1.26.37l1.27.34.32.09.32.08.64.15.64.15.16.04h.04s.07.03,0,0l.08.02.34.07.68.14.34.07c.11.02.23.05.33.07.42.08.84.16,1.26.24.42.08.86.14,1.29.21.43.07.87.13,1.3.19.43.06.87.12,1.3.16.44.05.87.1,1.3.14.44.04.87.08,1.3.12.43.03.87.06,1.3.09.43.03.87.05,1.3.06.43.02.86.04,1.29.04.43,0,.86.01,1.29.02.43,0,.85,0,1.28,0,1.7-.02,3.37-.1,5-.22,1.63-.13,3.22-.3,4.76-.52.39-.05.77-.11,1.14-.17.38-.06.76-.11,1.13-.18.74-.13,1.47-.27,2.18-.41.36-.07.71-.14,1.06-.22.35-.08.69-.16,1.03-.23.34-.07.68-.16,1.01-.25.33-.08.66-.17.99-.25,2.59-.69,4.91-1.46,6.92-2.22,2.01-.76,3.7-1.52,5.08-2.17.34-.17.66-.33.96-.48.15-.08.3-.15.44-.22.14-.07.27-.14.4-.21.26-.14.5-.26.72-.38.11-.06.22-.11.32-.17.1-.06.19-.11.28-.16.71-.39,1.08-.6,1.08-.6,0,0-.31.26-.88.76-.58.49-1.47,1.19-2.68,2.04-1.22.83-2.77,1.81-4.68,2.81-.24.13-.48.25-.73.38-.25.12-.51.25-.77.37-.26.13-.53.25-.8.38-.27.12-.55.25-.83.37-1.13.51-2.36.98-3.66,1.47-2.62.93-5.57,1.8-8.82,2.46-.41.08-.82.16-1.23.24-.42.07-.83.14-1.25.21-.21.03-.42.07-.63.11-.21.03-.43.06-.64.09-.43.06-.86.13-1.3.18-.44.05-.88.11-1.32.16-.44.05-.89.08-1.34.13-.23.02-.45.04-.68.06-.23.02-.45.03-.68.05-.46.03-.91.07-1.38.09-1.84.1-3.73.11-5.64.05-.48-.02-.96-.03-1.43-.05-.48-.03-.96-.06-1.44-.09-.48-.03-.96-.08-1.44-.13-.48-.04-.96-.1-1.45-.15-.48-.06-.97-.11-1.45-.18-.48-.07-.96-.13-1.45-.21-.49-.08-.98-.17-1.48-.25-.13-.02-.24-.05-.35-.07l-.34-.07-.68-.14-.34-.07-.08-.02-.13-.03-.18-.04-.7-.16-.71-.17-.35-.08-.35-.09-1.39-.37c-.23-.06-.46-.13-.69-.19l-.68-.2c-3.64-1.08-7.09-2.39-10.36-3.76-.81-.35-1.63-.68-2.43-1.03-.8-.35-1.59-.7-2.37-1.05-1.56-.7-3.09-1.39-4.58-2.07-.37-.17-.75-.34-1.12-.51-.37-.16-.74-.33-1.1-.49-.74-.33-1.47-.65-2.2-.98-.34-.15-.71-.31-1.07-.46-.36-.15-.71-.31-1.07-.45-.36-.15-.71-.29-1.06-.44-.18-.07-.35-.15-.52-.22-.18-.07-.35-.14-.52-.21-2.79-1.12-5.49-2.08-8.04-2.85-2.55-.77-4.97-1.35-7.15-1.76-.27-.05-.54-.1-.81-.15-.26-.05-.53-.08-.79-.12-.26-.04-.51-.08-.76-.11-.25-.04-.49-.08-.74-.11-.97-.11-1.86-.23-2.67-.27-.41-.03-.79-.06-1.16-.09-.36-.01-.7-.03-1.02-.04-.32-.01-.62-.02-.89-.03-.27,0-.52,0-.74,0-.89,0-1.37,0-1.37,0Z"/>
    <g>
      <path class="cls-2" d="m30.3,84.54l.75-1.08c.22-.28.42-.54.59-.78.17-.24.35-.35.54-.35.16,0,.42.13.78.4.36.27.75.59,1.18.96.42.38.78.74,1.08,1.08.3.35.45.61.45.8-.38.41-1.03.74-1.98.99v12.7c.03,1.88.06,3.42.09,4.61.03,1.19.07,2.27.12,3.25.05.97.1,2.04.16,3.2-.22.25-.61.53-1.18.82-.56.3-1.11.45-1.65.45-.22,0-.38-.09-.47-.28-.09-.19-.14-.41-.14-.66.06-.09.09-.19.09-.28s.02-.22.05-.38v-.85h-4.52v11.1c0,.35.1.57.31.68.2.11.73.16,1.58.16h7.22c.77,0,1.31-.02,1.62-.05.28-.03.48-.09.59-.19.11-.09.21-.25.31-.47.19-.41.4-1.22.64-2.42.24-1.21.48-2.53.73-3.98h.66l.09,6.63c.53.16.86.34.99.54.12.2.19.46.19.78,0,.47-.21.85-.64,1.15-.42.3-1.24.51-2.45.64-1.21.12-3.02.19-5.43.19h-4.99c-1.79,0-2.95-.22-3.48-.66-.53-.44-.8-1.24-.8-2.4v-11.71h-5.13c-.47,3.17-1.39,5.79-2.75,7.86-1.36,2.07-3.29,3.72-5.79,4.96-2.49,1.24-5.67,2.2-9.53,2.89l-.19-.75c3.29-.94,5.97-2.05,8.04-3.34,2.07-1.29,3.64-2.87,4.7-4.75,1.07-1.88,1.79-4.17,2.16-6.87h-4.14v1.88c0,.16-.25.37-.75.64-.5.27-1.07.4-1.69.4-.25,0-.48-.09-.68-.28-.2-.19-.31-.41-.31-.66.06-1,.12-1.92.16-2.75.05-.83.09-1.68.12-2.54.03-.86.06-1.84.09-2.94.03-1.1.06-2.4.09-3.9v-6.54c0-1.6-.05-3.28-.14-5.06-.09-1.77-.25-3.3-.47-4.59l3.81,1.74h19.29Zm.47,7.62v-6.21H10.77v6.21h19.99Zm-19.99,7.72h19.99v-6.35H10.77v6.35Zm19.99,1.41H10.77v6.45h19.99v-6.45Z"/>
      <path class="cls-2" d="m67.23,113.95v1.46c.06.72.09,1.25.09,1.6s.03.69.09,1.03c-.09.25-.36.53-.8.82-.44.3-1.02.45-1.74.45-.22,0-.43-.09-.64-.28-.2-.19-.31-.41-.31-.66.06-1,.12-1.93.19-2.78.06-.85.11-1.7.14-2.56.03-.86.06-1.84.09-2.94.03-1.1.06-2.41.09-3.95v-11.2c0-1.6-.05-3.28-.14-5.06-.09-1.77-.25-3.3-.47-4.59l3.95,1.79h5.17l.71-.89c.19-.25.36-.47.52-.66.16-.19.33-.28.52-.28s.54.18,1.06.54c.52.36,1.01.77,1.48,1.22.47.46.71.79.71,1.01-.13.16-.34.31-.64.47-.3.16-.65.28-1.06.38v15.85c.03,1.88.06,3.42.09,4.61.03,1.19.07,2.27.12,3.25.05.97.1,2.04.16,3.2-.22.28-.62.58-1.2.89-.58.31-1.11.47-1.58.47-.22,0-.38-.09-.49-.28-.11-.19-.16-.41-.16-.66.03-.19.06-.35.09-.49.03-.14.06-.37.09-.68v-1.08h-6.16Zm6.16-14.4v-11.15h-6.16v11.15h6.16Zm-6.16,1.32v11.71h6.16v-11.71h-6.16Zm30.2-9.08l.8-1.22c.22-.31.42-.6.61-.85.19-.25.38-.38.56-.38.12,0,.37.13.73.38.36.25.74.55,1.15.89.41.35.75.68,1.04,1.01s.42.59.42.78c-.13.5-.52.75-1.18.75h-9.41v4.09h6.92l.89-1.32c.25-.34.48-.65.68-.92.2-.27.4-.4.59-.4.16,0,.42.13.8.4.38.27.79.6,1.25.99.45.39.84.76,1.15,1.11.31.35.47.61.47.8-.13.5-.5.75-1.13.75h-18.16c-1.22.03-2.42.1-3.58.21-1.16.11-2.32.26-3.48.45l-1.18-2.45c1.03.13,2.07.21,3.1.26,1.04.05,2.09.09,3.15.12h5.6v-4.09h-3.25c-.97.03-1.94.1-2.92.21-.97.11-1.94.26-2.92.45l-1.18-2.4c1.03.13,2.07.21,3.1.26,1.04.05,2.09.09,3.15.12h4v-3.72h-3.43c-1.1.03-2.15.1-3.15.21-1,.11-2.02.26-3.06.45l-1.22-2.45c1.03.13,2.07.21,3.1.26,1.04.05,2.09.09,3.15.12h4.61c0-.82-.02-1.65-.07-2.52-.05-.86-.12-1.64-.21-2.33,1.63.47,2.77.85,3.41,1.15.64.3.97.55.99.75.02.2-.12.38-.4.54l-.8.52v1.88h5.93l.94-1.32c.25-.31.48-.61.68-.89.2-.28.4-.42.59-.42.16,0,.43.13.82.4.39.27.81.6,1.25.99.44.39.82.76,1.15,1.11.33.35.49.61.49.8-.06.25-.21.44-.45.56-.24.13-.49.19-.78.19h-10.63v3.72h5.27Zm-13.27,23.71v2.82c.06,1.38.1,2.41.12,3.08.02.67.05,1.42.12,2.23-.13.25-.42.53-.87.85-.45.31-1.04.47-1.76.47-.22,0-.42-.09-.61-.28-.19-.19-.28-.41-.28-.66.06-1,.12-1.9.19-2.68.06-.78.11-1.65.14-2.59.03-.94.06-2.16.09-3.67v-4.94c0-1.6-.05-3.28-.14-5.06-.09-1.77-.25-3.3-.47-4.59l4,1.79h12.23l.66-.94c.19-.25.35-.47.49-.66.14-.19.31-.28.49-.28.12,0,.38.12.78.35.39.24.8.52,1.22.85.42.33.79.65,1.11.96.31.31.47.56.47.75-.35.38-.97.67-1.88.89v16.61c0,.75-.09,1.41-.28,1.98-.19.56-.6,1.02-1.22,1.36-.63.34-1.58.58-2.87.71-.06-.41-.16-.79-.31-1.15-.14-.36-.34-.64-.59-.82-.31-.25-.74-.46-1.27-.64-.53-.17-1.24-.32-2.12-.45v-.75c.82.06,1.51.12,2.09.16.58.05,1.13.09,1.65.12.52.03.89.05,1.11.05.63,0,.94-.31.94-.94v-4.94h-13.22Zm13.22-7.48v-4.38h-13.22v4.38h13.22Zm-13.22,1.36v4.75h13.22v-4.75h-13.22Z"/>
      <path class="cls-2" d="m147.15,104.35c2.13.63,3.67,1.76,4.61,3.39.94,1.63,1.3,3.47,1.08,5.5-.16,1.51-.84,2.89-2.05,4.16-1.21,1.27-3.14,2.38-5.79,3.32-2.65.94-6.25,1.69-10.8,2.26-.5.06-.75-.05-.75-.33-.03-.19.08-.31.33-.35.25-.05.49-.09.71-.12.12-.03.65-.13,1.58-.28.92-.16,2.06-.42,3.41-.8,1.35-.38,2.73-.91,4.14-1.6,1.41-.69,2.66-1.57,3.74-2.63,1.08-1.07,1.81-2.35,2.19-3.86.06-.31.12-.82.16-1.53.05-.71,0-1.47-.14-2.28-.14-.82-.45-1.55-.92-2.21-.47-.66-1.19-1.13-2.16-1.41-1.32-.34-2.5-.27-3.55.21-1.05.49-2.05,1.29-3.01,2.4-.96,1.11-1.95,2.44-2.99,3.98-.31.47-.75.87-1.29,1.2-.55.33-.98.49-1.29.49-.13,0-.41-.04-.85-.12-.44-.08-.91-.24-1.41-.49-.5-.25-.95-.63-1.34-1.13-.39-.5-.62-1.18-.68-2.02-.06-.91-.06-2.1,0-3.58.06-1.47.16-3.05.31-4.73.14-1.68.29-3.3.45-4.87.06-.85,0-1.53-.19-2.05-.19-.52-.19-1.07,0-1.67.16-.47.42-.89.8-1.25.38-.36.67-.64.89-.82.38-.34.88-.68,1.51-1.01.63-.33,1.25-.64,1.88-.92.63-.28,1.18-.52,1.65-.73.47-.2.75-.34.85-.4.22-.16.38-.34.49-.54.11-.2.02-.46-.26-.78-.38-.47-.73-.83-1.06-1.08-.33-.25-.7-.49-1.11-.71-.16-.09-.31-.19-.47-.28-.16-.09-.22-.17-.19-.24.03-.12.25-.2.66-.24.41-.03.67-.03.8,0,.19,0,.53.02,1.04.05.5.03,1.07.16,1.69.38.63.22,1.22.6,1.79,1.13.56.53,1.02,1.32,1.36,2.35.22.6.24,1.1.07,1.51-.17.41-.39.72-.66.94-.27.22-.45.35-.54.38-.31.06-.71-.05-1.18-.33-.09-.09-.29-.24-.59-.42-.3-.19-.72-.33-1.27-.42-.55-.09-1.25-.03-2.09.19-.85.22-1.88.72-3.1,1.51-.35.22-.6.48-.78.78-.17.3-.29.67-.35,1.11-.06.35-.02.65.14.92.16.27.31.59.47.96.16.38.22.89.19,1.55-.03.22-.09.71-.19,1.46-.09.75-.2,1.62-.33,2.61-.13.99-.24,1.97-.33,2.94-.09.97-.14,1.77-.14,2.4,0,.56.05,1.05.14,1.46.09.41.22.78.38,1.13.28.56.58.85.89.85.19.03.43,0,.73-.12.3-.11.64-.32,1.01-.64.16-.12.52-.4,1.08-.82.56-.42,1.28-.89,2.14-1.41.86-.52,1.79-1,2.78-1.43.99-.44,1.98-.75,2.96-.94s1.91-.16,2.75.09Z"/>
      <path class="cls-2" d="m201.61,117.03c-2.09,1.49-4.29,2.6-6.61,3.32-2.32.72-4.63.85-6.92.38-2.26-.47-4.02-1.5-5.29-3.08-1.27-1.58-1.94-4.04-2-7.36-.06-2.57-.04-4.85.07-6.82.11-1.98.24-3.73.4-5.27.16-1.54.29-2.93.4-4.19.11-1.25.12-2.46.02-3.62-.09-1.07-.24-1.87-.42-2.4-.19-.53-.42-.91-.68-1.13-.27-.22-.54-.41-.82-.56-.19-.12-.29-.31-.31-.54-.02-.24.2-.38.64-.45.88-.12,1.77.03,2.68.47.63.28,1.1.75,1.41,1.39.31.64.52,1.33.64,2.07.11.74.13,1.39.07,1.95-.03.44-.09.96-.19,1.55-.09.6-.16,1.21-.19,1.83-.22,2.2-.43,4.2-.64,6.02-.2,1.82-.35,3.56-.42,5.22-.08,1.66-.06,3.36.07,5.08.12,1.82.44,3.21.94,4.16.5.96,1.19,1.65,2.07,2.07.88.42,1.91.75,3.1.96.6.13,1.37.19,2.33.19s2.12-.19,3.5-.56c1.38-.38,2.99-1.05,4.85-2.02,1.85-.97,3.97-2.38,6.35-4.23.19-.16.39-.3.61-.42.22-.12.38-.14.47-.05.09.13.07.28-.07.47s-.31.39-.49.61c-1.63,1.82-3.49,3.47-5.57,4.96Z"/>
      <path class="cls-2" d="m239.5,87.98c1.51-.25,3.22-.28,5.15-.09,1.93.19,3.85.66,5.76,1.41,1.91.75,3.65,1.83,5.2,3.25,1.55,1.41,2.74,3.2,3.55,5.36.82,2.16,1.07,4.77.75,7.81-.25,2.54-.92,4.68-2,6.42-1.08,1.74-2.39,3.17-3.93,4.28-1.54,1.11-3.14,1.99-4.8,2.63-1.66.64-3.25,1.11-4.75,1.39-1.51.28-2.77.46-3.79.54-1.02.08-1.61.13-1.76.16-1.57.16-2.37.09-2.4-.19-.06-.16.15-.27.64-.33.49-.06.89-.12,1.2-.19,1.04-.16,2.3-.45,3.79-.87,1.49-.42,3.03-1.01,4.61-1.76,1.58-.75,3.09-1.7,4.52-2.85,1.43-1.14,2.63-2.53,3.6-4.16.97-1.63,1.55-3.54,1.74-5.74.25-2.73,0-5.07-.73-7.03-.74-1.96-1.79-3.57-3.15-4.82-1.36-1.25-2.89-2.19-4.56-2.82-1.68-.63-3.33-.99-4.96-1.08-.63-.06-1.24-.06-1.83,0,.19.38.42.97.68,1.79.27.82.45,1.83.56,3.06.11,1.22.03,2.65-.24,4.28-.27,1.63-.82,3.45-1.67,5.46-1.29,3.01-2.67,5.49-4.16,7.43-1.49,1.94-2.89,3.37-4.19,4.28-1.3.91-2.27,1.33-2.89,1.27-.66-.06-1.41-.5-2.26-1.32-.85-.82-1.6-1.94-2.26-3.39-.66-1.44-1.05-3.14-1.18-5.08-.16-2.35.06-4.49.66-6.42.6-1.93,1.46-3.63,2.59-5.1,1.13-1.47,2.41-2.74,3.83-3.79,1.43-1.05,2.89-1.89,4.4-2.52,1.51-.63,2.93-1.05,4.28-1.27Zm.89,10.63c.22-.75.38-1.69.49-2.8.11-1.11.14-2.25.09-3.41-.05-1.16-.2-2.18-.45-3.06-1.94.22-3.82.78-5.62,1.69-1.8.91-3.42,2.16-4.85,3.76-1.43,1.6-2.5,3.51-3.22,5.74-.63,1.95-.91,3.66-.85,5.15.06,1.49.31,2.75.73,3.79.42,1.03.89,1.84,1.39,2.42.5.58.86.93,1.08,1.06.28.16.59.19.92.09s.71-.28,1.15-.56c1.35-1,2.56-2.18,3.62-3.53,1.07-1.35,1.98-2.71,2.75-4.09.77-1.38,1.38-2.63,1.83-3.76.45-1.13.76-1.96.92-2.49Z"/>
      <path class="cls-2" d="m310.25,99.97l1.04-1.46c.28-.34.53-.67.75-.99.22-.31.42-.47.61-.47.16,0,.45.15.87.45.42.3.88.65,1.36,1.06.49.41.91.8,1.27,1.18.36.38.54.66.54.85-.13.5-.52.75-1.18.75h-10.68v18.86h7.86l1.04-1.51c.28-.38.54-.72.78-1.03.24-.31.45-.47.64-.47.12,0,.41.15.85.45.44.3.92.66,1.43,1.08s.96.83,1.32,1.22c.36.39.54.68.54.87-.13.5-.53.75-1.22.75h-32.88c-1.22.03-2.42.1-3.58.21-1.16.11-2.32.26-3.48.45l-1.27-2.4c1,.13,1.99.21,2.96.26.97.05,1.96.09,2.96.12h2.82v-23.8c0-1.6-.05-3.28-.14-5.06-.09-1.77-.25-3.3-.47-4.59l5.08,1.46c2.07-.38,4.18-.82,6.33-1.32,2.15-.5,4.18-1.03,6.09-1.6,1.47-.41,2.89-.89,4.23-1.46,1.35-.56,2.59-1.19,3.72-1.88,1.19,1.32,2.02,2.29,2.49,2.92.47.63.67,1.02.61,1.18-.06.16-.3.22-.71.19l-1.22-.14c-1.98.47-4.23.93-6.77,1.36-2.54.44-5.21.84-8,1.2-2.79.36-5.55.62-8.28.78v10.54h21.69Zm-8.37,1.36h-13.31v18.86h13.31v-18.86Z"/>
    </g>
    <g>
      <path class="cls-1" d="m126.21,20.27h2c.66,0,1.48.11,1.48.87v6.86s-2.25.81-6.32.81-9.52-2.21-9.52-8.32,5.68-8.49,9.88-8.49c1.88,0,4.25.11,4.25,1.16v2.04c-1.6-1.28-2.24-1.51-4.67-1.51s-6.77,1.57-6.77,6.66,5.83,8.11,10.66,6.2v-3.9c0-.82-.05-2.38-1-2.38Z"/>
      <path class="cls-1" d="m156.66,28.41h5.15c-1.43-.52-2.01-2.2-2.48-3.43-.48-1.22-4.2-10.12-4.62-11.35-.41-1.22-1.01-1.22-1.48-1.22h-2.96c1.43.47.65,1.46.41,2.15-.24.7-5.21,12.8-5.21,12.8-1.72-.46-6.03-6.69-6.03-6.69,5.74-1.63,4.85-8.26-.76-8.26h-6.45c1.3.28,1.18,1.63,1.18,2.67v11.01c0,1.51-.47,1.91-1.23,2.32h4.72c-1.3-.58-.95-1.92-.95-2.55v-11.87h2.55c1.36,0,2.36,1.63,2.36,2.74,0,1.79-1.42,2.49-2.84,3.02-1.42.52-.65,1.68,0,2.62.66.93,2.55,3.54,3.67,4.82,1.13,1.28,2.12,1.22,2.66,1.22h4.26c-1.65-.52-.77-1.8-.54-2.43.24-.65,1.31-3.38,1.31-3.38h6.38s.77,1.97,1.48,3.72c.71,1.75.18,1.98-.59,2.09Zm-6.62-7.67l2.43-6.23,2.59,6.23h-5.02Z"/>
      <path class="cls-1" d="m208.42,28.41h5.15c-1.42-.52-2.01-2.2-2.48-3.43-.47-1.22-4.2-10.12-4.61-11.35-.42-1.22-1.01-1.22-1.48-1.22h-2.95c1.42.47.65,1.46.42,2.15-.24.7-5.21,12.8-5.21,12.8-.33.75-.82.77-1.11,1.05h4.25c-1.66-.52-.76-1.8-.53-2.43.23-.65,1.3-3.38,1.3-3.38h6.39s.77,1.97,1.48,3.72c.7,1.75.17,1.98-.61,2.09Zm-6.61-7.67l2.42-6.23,2.61,6.23h-5.03Z"/>
      <path class="cls-1" d="m190.23,28.71c.59-.53,1.13-.94,1.13-2.8v-11c0-.87-.05-1.86-1.13-2.22h4.56c-.47.41-1.03.93-1.03,2.1v11.12c0,.99-.22,2.45,1.1,2.8h-4.63Z"/>
      <path class="cls-1" d="m165.75,16.13s-.06,8.78-.06,9.77.13,2.45,1.43,2.8h-4.32c.6-.53,1.07-.94,1.07-2.8s.11-10.13.11-11-.11-1.86-1.18-2.22h3.32l9.93,12.28v-10.01c0-.64.12-1.86-1.23-2.33h4.43c-.53.41-1.31.58-1.31,2.27v14.44s-1.22.22-3.24-2.16c-2.01-2.38-8.94-11.05-8.94-11.05Z"/>
      <path class="cls-1" d="m194.01,41.09c-13-10.78-17.97-23.48-.19-40.81.55-.53,1.09-.21.65.28-7.8,8.76-16.48,22.8-.18,39.99"/>
    </g>
  </g>
</svg>