<?xml version="1.0" encoding="UTF-8"?>
<svg id="_レイヤー_2" data-name="レイヤー 2" xmlns="http://www.w3.org/2000/svg" viewBox="0 0 27.7578509 130.5327148">
  <defs>
    <style>
      .cls-1 {
        fill: #fff;
      }

      .cls-2 {
        fill: none;
        stroke: #fff;
        stroke-miterlimit: 10;
      }
    </style>
  </defs>
  <g id="_レイヤー_1-2" data-name="レイヤー 1">
    <g>
      <g>
        <path class="cls-1" d="m1.8001888,5.0703125q-.0517578-.0649414-.0517578-.0913086c0-.0258789.0263672-.0258789.0390625-.0258789.0644531,0,.4033203.0390625.4677734.0390625.5595703.0390625,1.1181641.0517578,1.6767578.0517578.1826172,0,.3515625-.0776367.3515625-.3505859,0-.5073242,0-1.3652344-.0126953-1.8852539,0-.3120117-.0390625-.3120117-.0917969-.3120117-.0644531,0-.0908203.0390625-.3505859.3901367-.7929688,1.0527344-1.6513672,1.7807617-1.7294922,1.7807617-.0390625,0-.0517578-.0390625-.0517578-.0517578,0-.0258789.5595703-.8193359.6503906-.9750977.5585938-.9492188,1.2734375-2.4438477,1.3261719-3.0551758.0253906-.4160156.0253906-.4677734.1162109-.4677734.1308594,0,1.2617188.3896484,1.2617188.6240234,0,.0908203-.390625.3637695-.46875.4418945-.0908203.1040039-.3505859.5327148-.3505859.637207,0,.1557617.1435547.1557617.3642578.1557617h5.5253906c.5849609,0,.6494141,0,.7792969-.2080078.1826172-.2861328.2861328-.4418945.4296875-.4418945.1689453,0,1.1044922.6889648,1.1044922.8320312,0,.1689453-.2988281.1689453-.6103516.1689453h-.8320312c-.1044922,0-.2998047,0-.3769531.1689453-.0527344.1171875-.0527344,1.1962891-.0527344,1.4301758,0,.1821289,0,.9619141.0654297,1.0268555.078125.0908203.1298828.0908203.5849609.0908203.2207031,0,.2988281-.0385742.4804688-.3637695.0654297-.1171875.1953125-.3120117.3769531-.3120117.1171875,0,1.1318359.6757812,1.1318359.8320312,0,.1821289-.2607422.1821289-.7021484.1821289h-1.5341797c-.1816406,0-.3505859,0-.3896484.2080078-.0136719.0517578-.0136719,1.2348633-.0136719,1.4038086,0,1.0532227,0,1.1572266.3125,1.1572266.2333984,0,.2988281,0,.4414062-.1953125.3515625-.4545898.390625-.5068359.4941406-.5068359.2080078,0,1.0009766.7929688,1.0009766.9101562,0,.1298828-.2988281.1298828-.5712891.1298828H3.8158138c-.2998047,0-.6894531.0131836-.9882812.0390625-.0390625,0-.2207031.0258789-.2597656.0258789s-.0654297-.0258789-.1044922-.0776367l-.2333984-.2993164q-.0527344-.0649414-.0527344-.0908203c0-.0258789.0263672-.0258789.0390625-.0258789.0654297,0,.3769531.0258789.4423828.0385742.7021484.0522461.8837891.0522461,1.1308594.0522461.1816406,0,.2861328,0,.3896484-.0908203.078125-.078125.1044922-.0913086.1044922-1.3393555,0-1.2089844,0-1.3388672-.3642578-1.3388672-.4287109,0-1.0791016,0-1.4824219.0390625-.0380859,0-.2333984.0258789-.2724609.0258789s-.0654297-.0258789-.1171875-.078125l-.2470703-.2988281Zm.6367188,6.5522461c-.2851562,0-.4414062-.2602539-.4414062-.4941406,0-.2470703.0908203-.4291992.5976562-.8452148.4160156-.3505859.5722656-.6108398.6503906-.909668.1035156-.3901367.1171875-.4291992.1953125-.4291992.1816406,0,.1943359.7280273.1943359.8710938,0,1.2739258-.7929688,1.8071289-1.1962891,1.8071289Zm3.0166016-6.2402344c-.3769531,0-.3769531.0908203-.3769531.8710938,0,.2207031-.0126953,1.5336914.0263672,1.6899414.0390625.2080078.1943359.2080078.3632812.2080078h.3515625c.1425781,0,.2724609,0,.3378906-.1298828.0517578-.1171875.0517578-1.8720703.0517578-2.1582031,0-.4033203-.0517578-.480957-.3769531-.480957h-.3769531Zm.0654297-3.0551758c-.2080078,0-.3515625,0-.4033203.2080078-.0390625.1689453-.0390625,1.144043-.0390625,1.3911133,0,1.0009766,0,1.1176758.4287109,1.1176758h.2861328c.1826172,0,.3125,0,.3769531-.1557617.0390625-.1040039.0390625-.8188477.0390625-1.0009766,0-.2080078,0-1.2871094-.0390625-1.4042969-.0644531-.1557617-.2080078-.1557617-.3896484-.1557617h-.2597656Zm1.0400391,8.4760742c0,.5332031-.2607422.793457-.5595703.793457-.3115234,0-.3896484-.234375-.3896484-.6113281,0-.7148438,0-1.065918-.1171875-1.5732422-.0126953-.0776367-.1298828-.4160156-.1298828-.480957,0-.0258789,0-.0649414.0517578-.0649414.15625,0,.4550781.3378906.5976562.5073242.2216797.2856445.546875.8188477.546875,1.4296875Zm1.1699219-2.6518555c.1816406,0,.3378906,0,.3769531-.2080078.0390625-.1953125.0390625-1.1831055.0390625-1.4433594,0-.1948242,0-.8579102-.0390625-.9746094-.0517578-.1430664-.2080078-.1430664-.3642578-.1430664h-.3378906c-.4033203,0-.4033203.0649414-.4033203.6630859,0,.2988281,0,1.8198242.0517578,1.9628906.0527344.1430664.2080078.1430664.3642578.1430664h.3125Zm.0253906-3.1074219c.390625,0,.390625-.1035156.390625-.9619141,0-.1816406-.0263672-1.4428711-.0390625-1.5341797-.0390625-.2207031-.2080078-.2207031-.3769531-.2207031h-.3125c-.1425781,0-.3115234,0-.3642578.1557617-.0390625.1303711-.0390625,1.5600586-.0390625,1.8334961,0,.6367188,0,.7275391.390625.7275391h.3505859Zm1.9892578,5.8505859c0,.5327148-.2988281.6889648-.5195312.6889648-.15625,0-.3251953-.0522461-.4033203-.559082-.1044922-.6889648-.1816406-1.1572266-.4160156-1.6772461-.0126953-.0258789-.1435547-.2988281-.1435547-.324707,0-.0263672.0263672-.0522461.0527344-.0522461.1816406,0,.4941406.2602539.6630859.4033203.2597656.246582.7666016.8320312.7666016,1.5209961Zm-.4033203-8.5673828c-.1425781,0-.3378906,0-.3769531.1821289-.0390625.1557617-.0390625,1.7939453-.0390625,2.0668945,0,.3510742,0,.4677734.4033203.4677734h.390625c.3769531,0,.4023438-.1166992.4023438-.4418945,0-.1821289,0-2.027832-.0644531-2.1577148-.0527344-.1171875-.234375-.1171875-.3515625-.1171875h-.3642578Zm-.0126953,3.0551758c-.2988281,0-.3896484.0517578-.3896484.3769531v2.0668945c0,.3251953.1943359.3251953.4023438.3251953h.3779297c.1425781,0,.3115234,0,.3632812-.15625.0390625-.0908203.0390625-1.0268555.0390625-1.2216797,0-.2080078,0-1.144043-.0390625-1.2353516-.0517578-.1557617-.2207031-.1557617-.3632812-.1557617h-.390625Zm3.6796875,5.5512695c0,.1816406-.0390625.7407227-.5205078.7407227-.3115234,0-.3505859-.1298828-.5195312-.7407227-.1171875-.4033203-.4033203-1.1704102-.6113281-1.5732422-.0654297-.1171875-.1689453-.3120117-.1689453-.3769531,0-.0258789.0253906-.0390625.0390625-.0390625.1425781,0,.5332031.2729492.6494141.3642578.8583984.6367188,1.1318359,1.1699219,1.1318359,1.625Z"/>
        <path class="cls-1" d="m17.8949154,4.5629883c-.0771484,0-.3896484.0131836-.3896484.2211914,0,.0517578.0517578.1040039.1044922.1298828.7402344.3901367,2.0273438,1.3261719,2.0273438,2.0283203,0,.1816406-.1035156.5458984-.4677734.5458984-.2470703,0-.2988281-.15625-.4550781-.6499023-.3115234-.9750977-1.1181641-1.7163086-1.1699219-1.7163086-.0654297,0-.0654297.0390625-.0654297.2861328,0,.3120117.0263672,1.8330078.0263672,2.1708984.0126953.4941406.0517578,2.8862305.0517578,3.4321289,0,.5981445-.5585938.6889648-.6240234.6889648-.1552734,0-.3632812-.1166992-.3632812-.402832s.1035156-1.6899414.1162109-2.0019531c.0136719-.1689453.078125-2.4960938.078125-2.6132812,0-.0776367-.0253906-.1430664-.1171875-.1430664-.0644531,0-.0908203.0390625-.2851562.4160156-.5332031.9750977-1.6777344,2.5224609-1.8466797,2.5224609-.0253906,0-.0390625-.0131836-.0390625-.0390625,0-.0263672.1826172-.3510742.2216797-.4160156,1.4296875-2.7563477,1.6767578-4.0820312,1.6767578-4.1733398,0-.1166992-.078125-.2861328-.2988281-.2861328-.234375,0-.9492188.0390625-1.1699219.0522461-.0263672,0-.15625.0126953-.1826172.0126953-.0517578,0-.078125-.0258789-.1171875-.0776367l-.2470703-.2993164q-.0644531-.0649414-.0644531-.0908203c0-.0258789.0253906-.0258789.0517578-.0258789.0654297,0,.3896484.0390625.4677734.0390625.2470703.0126953,1.4306641.0517578,1.5996094.0517578.3115234,0,.3896484-.1166992.3896484-.3769531,0-.7412109-.0253906-2.0668945-.0517578-2.7563477-.0126953-.1425781-.0908203-.8056641-.0908203-.9487305,0-.0649414.0253906-.1430664.1035156-.1430664.0263672,0,1.2871094.2470703,1.2871094.480957,0,.0649414-.0253906.078125-.1298828.1821289-.1035156.078125-.2080078.1948242-.2861328.5332031,0,.0258789-.1171875,2.5478516-.1171875,2.6777344,0,.3510742.2470703.3510742.4550781.3510742.1435547,0,.4296875,0,.5332031-.0908203.078125-.078125.4423828-.6113281.5722656-.6113281.0644531,0,1.0136719.6889648,1.0136719.8710938,0,.1689453-.1425781.1689453-.4941406.1689453h-1.703125Zm-2.3007812-1.1176758c-.2597656,0-.2988281-.2080078-.4160156-.7802734-.1298828-.5981445-.4287109-1.0791016-.6240234-1.4038086-.0126953-.0263672-.0390625-.0649414-.0390625-.1040039,0-.0522461.0517578-.078125.0908203-.078125.2216797,0,1.5087891.9101562,1.5087891,1.7421875,0,.480957-.390625.6240234-.5205078.6240234Zm2.4960938.2207031c-.0126953,0-.0263672,0-.0263672-.0390625s.2470703-.5585938.2998047-.6630859c.2470703-.5717773.5585938-1.546875.5849609-2.0927734,0-.0390625.0126953-.1171875.078125-.1171875.1035156,0,1.0400391.637207,1.0400391.7802734,0,.078125-.078125.1298828-.1171875.1557617-.078125.0390625-.2861328.1430664-.4033203.2602539-.0390625.0390625-1.2998047,1.7158203-1.4560547,1.7158203Zm2.7041016,4.3554688c-.5585938.1166992-1.2480469.2729492-1.5986328.3769531-.0527344.0126953-.234375.078125-.2861328.078125-.0390625,0-.0654297-.0131836-.1044922-.0522461l-.3115234-.2470703q-.0654297-.0517578-.0654297-.078125c0-.0258789.0263672-.0258789.3515625-.0649414.0908203-.0126953,1.0791016-.1557617,2.0146484-.3510742l2.0283203-.4287109c.4033203-.0913086.4033203-.4418945.4033203-.4682617,0-2.3920898-.0654297-4.796875-.1308594-5.6420898-.0126953-.1430664-.1162109-.8188477-.1162109-.9619141,0-.0649414.0390625-.1171875.1035156-.1171875.078125,0,1.3388672.2211914,1.3388672.4418945,0,.078125-.2470703.3120117-.2861328.3642578-.0644531.1430664-.1162109.3510742-.1298828.4418945,0,.0522461-.0126953,2.0800781-.0126953,2.4443359,0,.5849609,0,2.5219727.0126953,2.9638672,0,.1171875.1171875.2211914.2470703.2211914.0517578,0,.2470703-.0390625.3125-.15625.078125-.1298828.3251953-.7670898.4550781-.7670898.0390625,0,1.1181641.5073242,1.1181641.715332,0,.1948242-.390625.2861328-.4550781.2988281l-1.3007812.2602539c-.2207031.0385742-.3505859.1948242-.3505859.4160156,0,.5458984.1298828,3.1069336.1298828,3.3798828,0,.4550781-.4160156.6630859-.6630859.6630859-.2207031,0-.3769531-.1689453-.3769531-.4291992,0-.1166992.0390625-.6757812.0390625-.7929688.0126953-.5327148.0517578-2.0019531.0517578-2.3662109,0-.3115234,0-.6367188-.3769531-.5585938l-2.0410156.4160156Zm.9365234-1.9633789c-.2734375,0-.3125-.1557617-.4033203-.4550781-.0654297-.2338867-.5332031-1.0917969-.8837891-1.4428711-.0654297-.0649414-.1298828-.1171875-.1298828-.1689453,0-.0390625.0517578-.0522461.0771484-.0522461.2080078,0,1.7685547.6630859,1.7685547,1.5864258,0,.5200195-.3642578.5327148-.4287109.5327148Zm.1162109-3.2631836c-.2460938,0-.3896484-.2856445-.4931641-.480957-.2080078-.402832-.3388672-.5200195-.7675781-.9228516-.0644531-.0649414-.078125-.078125-.078125-.1171875s.0263672-.0390625.0908203-.0390625c.0390625,0,1.6123047.2470703,1.6123047,1.0664062,0,.0517578,0,.4936523-.3642578.4936523Z"/>
      </g>
      <line class="cls-2" y1="19.8967101" x2="27.7578509" y2="19.8967101"/>
      <g>
        <path class="cls-1" d="m9.8255794,39.9033203c-.125,0-.3984375,0-.4609375.2729492-.1679688.6928711-.7148438.9238281-1.0917969.9238281-.2949219,0-.4414062-.1889648-.4414062-.5458984,0-.3779297.1259766-3.9262695.1259766-4.6191406,0-1.0917969-.0419922-3.4853516-.1044922-4.703125,0-.230957-.0839844-1.3647461-.0839844-1.4907227,0-.0629883,0-.1679688.0625-.1679688.1679688,0,1.2382812.4829102,1.4697266.5458984.1679688.0629883.4833984.1679688,1.0078125.1679688h7.2646484c.2519531,0,.3984375,0,.671875-.1259766.1464844-.0839844.6933594-.7768555.8818359-.7768555.3154297,0,1.1337891.8398438,1.1337891,1.1757812,0,.0839844-.0625.1889648-.0839844.2099609-.0419922.0629883-.2304688.3569336-.2734375.4199219-.1679688.2939453-.1679688,1.8266602-.1679688,2.3725586,0,1.4907227,0,2.1206055.0634766,5.0180664,0,.1469727.0419922.902832.0419922,1.0708008,0,.5039062-.5039062,1.3647461-1.0703125,1.3647461-.4833984,0-.5253906-.3359375-.5673828-.7558594-.0419922-.3569336-.3359375-.3569336-.5039062-.3569336h-1.1337891c-.5664062,0-.5664062.2099609-.5664062,1.7006836v3.590332c0,.4619141,0,.9658203,2.4980469.9658203,2.3730469,0,2.6035156-.5249023,2.9609375-1.7636719.0839844-.2939453.3144531-1.9316406.4199219-1.9316406.0410156,0,.1044922.0629883.125.2099609.0214844.4199219.1679688,1.9106445.5039062,2.5615234.0634766.1049805.4628906.6088867.4628906.7558594,0,.2099609-.2314453.5249023-.5878906.7768555-.8828125.6298828-2.2675781.7768555-3.4228516.7768555-4.0732422,0-4.2626953-.5878906-4.3037109-1.7006836-.0214844-.3779297-.0214844-.7558594-.0214844-4.0522461,0-.3779297,0-1.5327148-.1259766-1.7216797-.1259766-.1679688-.3154297-.1679688-.4199219-.1679688h-1.1123047c-.3574219,0-.3994141,0-.3994141.0629883,0,.0839844.2314453.1889648.3154297.230957.3769531.1889648.4609375.230957.4609375.3359375s-.0205078.1049805-.2929688.2729492c-.2519531.1469727-.2949219.230957-.3574219.5039062-.1259766.5668945-.4619141,1.8266602-1.3222656,3.1074219-2.2675781,3.4013672-6.4882812,3.590332-6.7822266,3.590332-.0839844,0-.2099609-.0209961-.2099609-.1049805,0-.0629883.0839844-.1259766.1679688-.1469727.609375-.230957,1.5537109-.5878906,2.4570312-1.0078125,3.7578125-1.7636719,4.3457031-5.2490234,4.3457031-6.3618164,0-.4199219-.1464844-.4829102-.5039062-.4829102h-1.0292969Zm.1679688-3.0654297c-.6503906,0-.6503906.1889648-.6503906,1.1337891,0,1.1967773,0,1.3647461.6298828,1.3647461h7.6845703c.5664062,0,.5878906-.1049805.5878906-1.4907227,0-.7138672,0-1.0078125-.609375-1.0078125h-7.6425781Zm.0429688-3.0234375c-.671875,0-.671875.1889648-.671875,1.2597656,0,.9868164,0,1.2177734.6289062,1.2177734h7.6855469c.6083984,0,.6083984-.1469727.6083984-1.4697266,0-.7558594,0-1.0078125-.6298828-1.0078125h-7.6210938Zm.0410156-2.9604492c-.1884766,0-.4824219,0-.6083984.2519531-.0634766.1259766-.0634766,1.3227539-.0634766,1.5957031,0,.5668945.4199219.5668945.6933594.5668945h7.5800781c.1464844,0,.4404297,0,.5664062-.2519531.0625-.1259766.0625-1.2597656.0625-1.4487305,0-.2939453,0-.7138672-.5449219-.7138672h-7.6855469Z"/>
        <path class="cls-1" d="m19.5267513,61.8862305c.8183594,0,1.0703125,0,1.34375-.3569336.2304688-.3149414.2724609-.3779297.5039062-.3779297.4404297,0,1.9941406,1.3227539,1.9941406,1.8056641,0,.230957-.2734375.3359375-.4199219.3359375-.0625,0-.6503906-.1049805-.734375-.1049805-.5039062,0-1.1347656.1889648-2.2050781,1.0498047-.1679688.1259766-.2734375.2099609-.3779297.2099609-.0419922,0-.0839844-.0419922-.0839844-.0839844,0-.230957.7138672-1.4487305.7138672-1.6376953,0-.2729492-.2734375-.2939453-.5664062-.2939453H7.2435482c-.3779297,0-.5664062,0-.671875.4199219-.2734375.9658203-.5253906,2.0366211-1.3652344,2.0366211-.4404297,0-.7763672-.3779297-.7763672-.8188477s.1044922-.5878906.7558594-1.4907227c.3564453-.4829102.3994141-.6298828.6083984-1.6796875.0214844-.0629883.0634766-.230957.1679688-.230957.1894531,0,.3574219.3779297.5878906.9238281.1269531.2939453.3994141.2939453.609375.2939453h12.3671875Zm-7.0761719,7.4746094c.2519531,0,.6503906,0,.6503906-.5458984,0-.2519531-.0205078-.7348633-.0625-.9868164-.0625-.3149414-.1464844-.7348633-.1464844-.8188477,0-.0629883,0-.3359375.2304688-.3359375.1894531,0,1.0703125.2729492,1.2597656.2729492.4619141,0,2.0576172-1.5537109,2.0576172-1.784668,0-.1469727-.1044922-.1469727-.3994141-.1469727h-4.9335938c-.5039062,0-1.9316406,0-2.6455078.0629883-.0839844,0-.3779297.0419922-.4619141.0419922-.0625,0-.1054688-.0419922-.1679688-.1259766l-.4199219-.4829102q-.0839844-.1049805-.0839844-.1469727c0-.0419922.0419922-.0419922.0625-.0419922.1474609,0,.7773438.0629883.9238281.0629883.609375.0419922,1.7011719.0839844,2.8984375.0839844h4.7441406c.9453125,0,1.0292969,0,1.34375-.3569336.2109375-.2519531.3359375-.3359375.5253906-.3359375.2734375,0,1.3222656,1.0708008,1.3222656,1.3857422s-.1884766.3569336-.8183594.5039062c-.8818359.1889648-2.4570312,1.0917969-3.4853516,1.6796875-.2724609.1679688-.3154297.1889648-.3154297,1.4487305,0,.5668945.4628906.5668945.671875.5668945h3.6328125c.8613281,0,1.1542969-.0209961,1.34375-.3569336.3984375-.7138672.4619141-.8818359.8613281-.8818359.4609375,0,1.9316406,1.2177734,1.9316406,1.5117188,0,.2729492-.4199219.2729492-1.1132812.2729492h-6.6972656c-.609375,0-.609375.1679688-.609375,1.2387695,0,1.574707-.0214844,2.7294922-.1054688,3.2963867-.1464844.8818359-.8808594,1.2177734-1.7001953,1.2177734-.2939453,0-.3154297-.1259766-.3994141-.3779297-.1679688-.5668945-.8183594-.8398438-1.7001953-1.2177734-.2519531-.1049805-.4833984-.1889648-.4833984-.3149414,0-.1049805.1269531-.1049805.1894531-.1049805.0419922,0,1.7636719.2519531,2.0996094.2519531.3574219,0,.609375,0,.6298828-1.0708008,0-.4619141.0419922-1.9526367.0419922-2.2675781,0-.3569336-.0625-.6508789-.6503906-.6508789h-4.03125c-.5039062,0-1.9316406,0-2.6669922.0629883-.0634766,0-.3564453.0419922-.4404297.0419922-.0634766,0-.1054688-.0419922-.1894531-.1259766l-.3984375-.4829102q-.0839844-.1049805-.0839844-.1469727c0-.0419922.0410156-.0419922.0625-.0419922.1464844,0,.7773438.0629883.9238281.0629883.609375.0209961,1.7011719.0839844,2.8974609.0839844h3.9052734Zm-5.0605469-12.1777344c.4199219,0,3.0449219.9868164,3.0449219,2.8764648,0,.3989258-.2519531.7978516-.7138672.7978516-.5244141,0-.6083984-.1679688-1.2392578-1.5117188-.4199219-.8818359-.4824219-.9658203-1.2167969-1.9316406-.0214844-.0419922-.0839844-.1469727-.0634766-.1889648s.1474609-.0419922.1884766-.0419922Zm7.6220703,2.3305664c0,.6298828-.3779297,1.0708008-.7763672,1.0708008-.6513672,0-.7773438-.7978516-.8613281-1.2387695-.1259766-.7768555-.5253906-1.9946289-.7138672-2.3725586-.0205078-.0629883-.1679688-.3569336-.1044922-.4199219.1884766-.2099609,2.4560547,1.2387695,2.4560547,2.9604492Zm5.7529297-1.2597656c0,.1889648-.0839844.2099609-.4619141.3149414-.3564453.0839844-.4619141.1889648-1.2802734,1.0288086-1.3027344,1.3017578-2.2050781,1.9736328-2.3310547,1.9736328-.0419922,0-.0839844-.0419922-.0839844-.0839844,0-.0209961.7353516-1.3647461.8193359-1.5327148.2304688-.4619141.9443359-1.8476562,1.0703125-2.7504883.0625-.3989258.0839844-.4619141.2099609-.4619141s.2939453.1049805.3994141.1679688c.5449219.3359375,1.6582031,1.0078125,1.6582031,1.34375Z"/>
        <path class="cls-1" d="m13.6263607,91.3027344c.4824219,0,.6933594,0,.6933594-.2519531,0-.0209961-.4833984-1.112793-2.7509766-2.9394531-.5673828-.4619141-.6298828-.5039062-.6298828-.5878906,0-.0629883.0839844-.0629883.1054688-.0629883.0839844,0,1.1757812.2939453,1.9941406.6088867.3144531.1049805,1.8896484.7348633,1.953125.7348633.1884766,0,.2724609.0209961.9648438-.8398438.2519531-.2939453,1.1972656-1.5957031,1.1972656-1.8476562,0-.230957-.2519531-.230957-.5039062-.230957h-6.0888672c-.5039062,0-1.9111328,0-2.6455078.0629883-.0625,0-.3779297.0419922-.4414062.0419922-.0839844,0-.125-.0419922-.1884766-.1259766l-.3994141-.4829102q-.1044922-.1049805-.1044922-.1469727c0-.0419922.0419922-.0419922.0839844-.0419922.1259766,0,.7763672.0629883.9238281.0629883.6083984.0419922,1.6796875.0839844,2.8759766.0839844h6.2148438c.6513672,0,.8828125,0,1.0507812-.1889648.3144531-.3779297.5039062-.5878906.671875-.5878906.3359375,0,2.0996094,1.0498047,2.0996094,1.4067383,0,.2099609-.0839844.230957-.8828125.3989258-.4609375.0839844-.796875.2939453-3.7578125,2.2885742-.609375.3989258-.6503906.4199219-.6503906.6088867,0,.1049805.0410156.1679688.125.2939453.1269531.1889648.2314453.4199219.2314453.7138672,0,.0839844-.0205078.2519531-.1044922.3989258-.1269531.2099609-.1679688.2729492-.1679688.4199219,0,.2099609.1884766.2099609.3984375.2099609h3.7373047c.9238281,0,.9873047-.0419922,1.0712891-.1049805.3984375-.3149414.5244141-.4199219.671875-.4199219.2724609,0,2.0566406,1.4907227,2.0566406,1.9106445,0,.2729492-.2724609.3359375-.3984375.3359375s-.7558594-.1259766-.9023438-.1259766c-.5673828,0-.7353516.1049805-2.1630859,1.112793-.2099609.1469727-.8818359.6508789-.9658203.6508789s-.1464844-.0629883-.1464844-.1469727c0-.0419922,1.46875-2.0366211,1.46875-2.4145508,0-.230957-.1679688-.2519531-.6289062-.2519531h-4.2207031c-.4414062,0-.8183594.0209961-.8183594.5878906,0,.7978516.1044922,7.2436523.1044922,7.4116211,0,.7558594-.0419922,1.7006836-.5458984,2.2885742-.4199219.5249023-1.0498047.7558594-1.3017578.7558594-.3154297,0-.4199219-.1679688-.8193359-.7768555-.125-.2099609-.4824219-.5668945-.9863281-.7978516-.2099609-.1049805-1.2597656-.440918-1.2597656-.6298828,0-.0839844.1679688-.1259766.2519531-.1259766s.4619141.0629883.5458984.0629883c.3994141.0419922.7763672.0629883,1.1552734.0629883.9023438,0,1.2167969-.0419922,1.34375-.4619141.1044922-.4199219.1044922-3.2753906.1044922-3.9682617,0-.5458984-.0634766-3.1494141-.0634766-3.7373047,0-.2939453,0-.671875-.6289062-.671875h-4.7246094c-.5039062,0-1.9101562.0209961-2.6455078.0629883-.0634766,0-.3779297.0419922-.4404297.0419922-.0839844,0-.1054688-.0419922-.1894531-.1259766l-.3984375-.4829102q-.1054688-.1049805-.1054688-.1469727c0-.0419922.0625-.0419922.0839844-.0419922.1259766,0,.7773438.0629883.9238281.0629883.609375.0419922,1.6796875.0839844,2.8769531.0839844h5.6894531Z"/>
        <path class="cls-1" d="m7.8529232,124.2338867c0,.1259766-.3574219.4619141-.4199219.5458984-.3574219.5039062-1.7851562,2.7714844-2.1425781,3.1914062-.1464844.1889648-.5878906.671875-.7558594.671875-.0625,0-.0839844-.0209961-.0839844-.0839844,0-.0209961.6308594-1.5327148.7353516-1.8266602.3779297-1.0708008.7558594-2.1416016.7763672-2.7294922.0214844-.6088867.0214844-.671875.1894531-.671875.1259766,0,.671875.2099609.8183594.2729492.2949219.1259766.8828125.3989258.8828125.6298828Zm4.4511719-2.4355469c-.0429688-.1889648-.0839844-.3149414-.2949219-.3149414-.1884766,0-1.1757812.2099609-1.40625.230957-.5664062.0839844-.5664062.2519531-.5664062,1.0498047,0,.9238281.0205078,5.5009766.0205078,6.5297852,0,1.0078125-.8818359,1.1547852-1.0712891,1.1547852-.4609375,0-.4609375-.3569336-.4609375-.5039062,0-.2729492.1044922-1.5537109.1044922-1.8476562.0419922-1.5327148.1044922-4.1152344.1044922-5.6269531,0-.2729492-.0410156-.5039062-.4199219-.5039062-.3769531,0-1.9726562.1469727-2.4560547.3149414-.0839844.0419922-.5039062.3149414-.6083984.3149414-.3789062,0-.5039062-1.6796875-.5039062-1.784668s0-.3149414.1884766-.3149414c.0205078,0,.5244141.1469727.5673828.1679688.4404297.1469727,1.1757812.2939453,2.0996094.2939453.671875,0,.7558594-.0629883.9443359-.3779297,1.0712891-1.7636719,2.2880859-4.5981445,2.5400391-5.8789062.1054688-.5039062.1054688-.5458984.2734375-.5458984.1054688,0,2.0371094.7768555,2.0371094,1.2177734,0,.1889648-.1474609.2519531-.3154297.2729492-.1884766.0419922-.3779297.0629883-.7558594.440918-.5673828.5668945-3.2548828,4.6821289-3.2548828,4.7871094,0,.0629883.0429688.0839844.0634766.1049805.0839844.0209961,1.3232422.0209961,1.4697266.0209961.3144531,0,.9863281-.0419922,1.2177734-.0629883.1044922,0,.1884766-.0419922.1884766-.1889648,0-.2519531-.5878906-1.4487305-.5878906-1.4907227,0-.0839844.0634766-.0839844.0839844-.0839844.3359375,0,2.3105469,1.1337891,2.3105469,2.6455078,0,.4619141-.2734375.8398438-.6513672.8398438-.4619141,0-.7353516-.1679688-.8603516-.8608398Zm-4.578125-2.7504883c-.2929688,0-.4609375-.1259766-.6923828-.671875-.0839844-.230957-.5458984-1.2177734-1.4072266-2.246582-.2089844-.2519531-.2304688-.2729492-.2304688-.3359375s.0419922-.1259766.1679688-.1259766c.2519531,0,1.3652344.5249023,1.5117188.5249023.2734375,0,1.0078125-2.6035156,1.28125-4.2832031.0625-.3359375.1044922-.3359375.1884766-.3359375.1474609,0,1.8896484.7138672,1.8896484.9658203,0,.1259766-.5253906.4619141-.609375.5458984-.2519531.2729492-2.0996094,3.1494141-2.0996094,3.4433594,0,.1889648.0839844.2939453.1894531.3989258.2519531.2729492.5253906.8398438.5253906,1.2177734,0,.4199219-.2314453.902832-.7148438.902832Zm6.0683594,7.7685547c0,.6088867-.4619141,1.0708008-.8613281,1.0708008-.4199219,0-.4609375-.1679688-.7763672-1.6376953-.1884766-.8398438-.2519531-.9658203-.671875-1.8056641-.0419922-.1049805-.1259766-.2939453-.1259766-.3779297s.0625-.1049805.1054688-.1049805c.1884766,0,.8398438.4829102,1.1962891.8398438.6083984.6088867,1.1337891,1.4277344,1.1337891,2.015625Zm2.078125-10.0361328c-.4609375,0-.6083984.0629883-.7763672.3149414-.4833984.7558594-1.6591797,2.5825195-2.0361328,2.5825195-.1054688,0-.1474609-.0629883-.1474609-.1469727,0-.0419922.7763672-1.5327148.9033203-1.8266602.8808594-1.8896484,1.8046875-4.7451172,1.8046875-5.8789062,0-.0419922-.0205078-.2519531-.0205078-.2939453,0-.0629883.0205078-.1259766.0839844-.1259766s2.2880859.671875,2.2880859,1.0917969c0,.2099609-.2519531.3359375-.5664062.4829102-.3359375.1469727-1.6582031,3.0864258-1.6582031,3.1074219,0,.1259766.1679688.1259766.3564453.1259766h3.8427734c.5664062,0,.5878906,0,.8183594-.1889648.3779297-.3569336.4199219-.3989258.5664062-.3989258.2519531,0,1.6591797.7768555,1.6591797,1.1967773,0,.1469727-.0634766.1679688-.5244141.5458984-.1679688.1259766-.1679688,1.0288086-.1679688,1.574707-.0429688,3.8632812-.609375,8.4404297-1.7851562,10.2670898-.5458984.8608398-1.7011719,1.3227539-2.2675781,1.3227539-.2734375,0-.3359375-.1679688-.5253906-.671875-.1884766-.5249023-.671875-.9868164-1.1542969-1.3227539-.2939453-.1889648-.3359375-.2099609-.3359375-.3149414,0-.0839844.0625-.0839844.0839844-.0839844.0419922,0,.5664062.1889648.671875.2099609.5664062.1679688.9863281.3149414,1.3222656.3149414.9033203,0,1.3652344-.8818359,1.6171875-1.8896484.671875-2.5405273.9453125-5.144043.9453125-7.7685547,0-.3359375,0-1.8476562-.0634766-1.9526367-.1259766-.2729492-.3994141-.2729492-.6298828-.2729492h-4.3046875Zm2.2890625,6.7817383c0,.7978516-.5039062,1.34375-1.0078125,1.34375-.5253906,0-.5878906-.2519531-.8398438-1.6166992-.1894531-1.0078125-.5253906-1.8686523-.6298828-2.0786133-.1474609-.3149414-.1679688-.3779297-.1679688-.440918s0-.1259766.0634766-.1259766c.3359375,0,1.3222656.7978516,1.6582031,1.1337891.5878906.5668945.9238281,1.1547852.9238281,1.784668Z"/>
      </g>
    </g>
  </g>
</svg>