<?xml version="1.0" encoding="UTF-8"?>
<svg id="_レイヤー_2" data-name="レイヤー 2" xmlns="http://www.w3.org/2000/svg" viewBox="0 0 27.7580566 131.0751953">
  <defs>
    <style>
      .cls-1 {
        fill: #002a37;
      }
    </style>
  </defs>
  <g id="_レイヤー_1-2" data-name="レイヤー 1">
    <g>
      <g>
        <path class="cls-1" d="m1.8002973,5.0703125q-.0517578-.0649414-.0517578-.0913086c0-.0258789.0263672-.0258789.0390625-.0258789.0644531,0,.4033203.0390625.4677734.0390625.5595703.0390625,1.1181641.0517578,1.6767578.0517578.1826172,0,.3515625-.0776367.3515625-.3505859,0-.5073242,0-1.3652344-.0126953-1.8852539,0-.3120117-.0390625-.3120117-.0917969-.3120117-.0644531,0-.0908203.0390625-.3505859.3901367-.7929688,1.0527344-1.6513672,1.7807617-1.7294922,1.7807617-.0390625,0-.0517578-.0390625-.0517578-.0517578,0-.0258789.5595703-.8193359.6503906-.9750977.5585938-.9492188,1.2734375-2.4438477,1.3261719-3.0551758.0253906-.4160156.0253906-.4677734.1162109-.4677734.1308594,0,1.2617188.3896484,1.2617188.6240234,0,.0908203-.390625.3637695-.46875.4418945-.0908203.1040039-.3505859.5327148-.3505859.637207,0,.1557617.1435547.1557617.3642578.1557617h5.5253906c.5849609,0,.6494141,0,.7792969-.2080078.1826172-.2861328.2861328-.4418945.4296875-.4418945.1689453,0,1.1044922.6889648,1.1044922.8320312,0,.1689453-.2988281.1689453-.6103516.1689453h-.8320312c-.1044922,0-.2998047,0-.3769531.1689453-.0527344.1171875-.0527344,1.1962891-.0527344,1.4301758,0,.1821289,0,.9619141.0654297,1.0268555.078125.0908203.1298828.0908203.5849609.0908203.2207031,0,.2988281-.0385742.4804688-.3637695.0654297-.1171875.1953125-.3120117.3769531-.3120117.1171875,0,1.1318359.6757812,1.1318359.8320312,0,.1821289-.2607422.1821289-.7021484.1821289h-1.5341797c-.1816406,0-.3505859,0-.3896484.2080078-.0136719.0517578-.0136719,1.2348633-.0136719,1.4038086,0,1.0532227,0,1.1572266.3125,1.1572266.2333984,0,.2988281,0,.4414062-.1953125.3515625-.4545898.390625-.5068359.4941406-.5068359.2080078,0,1.0009766.7929688,1.0009766.9101562,0,.1298828-.2988281.1298828-.5712891.1298828H3.8159223c-.2998047,0-.6894531.0131836-.9882812.0390625-.0390625,0-.2207031.0258789-.2597656.0258789s-.0654297-.0258789-.1044922-.0776367l-.2333984-.2993164q-.0527344-.0649414-.0527344-.0908203c0-.0258789.0263672-.0258789.0390625-.0258789.0654297,0,.3769531.0258789.4423828.0385742.7021484.0522461.8837891.0522461,1.1308594.0522461.1816406,0,.2861328,0,.3896484-.0908203.078125-.078125.1044922-.0913086.1044922-1.3393555,0-1.2089844,0-1.3388672-.3642578-1.3388672-.4287109,0-1.0791016,0-1.4824219.0390625-.0380859,0-.2333984.0258789-.2724609.0258789s-.0654297-.0258789-.1171875-.078125l-.2470703-.2988281Zm.6367188,6.5522461c-.2851562,0-.4414062-.2602539-.4414062-.4941406,0-.2470703.0908203-.4291992.5976562-.8452148.4160156-.3505859.5722656-.6108398.6503906-.909668.1035156-.3901367.1171875-.4291992.1953125-.4291992.1816406,0,.1943359.7280273.1943359.8710938,0,1.2739258-.7929688,1.8071289-1.1962891,1.8071289Zm3.0166016-6.2402344c-.3769531,0-.3769531.0908203-.3769531.8710938,0,.2207031-.0126953,1.5336914.0263672,1.6899414.0390625.2080078.1943359.2080078.3632812.2080078h.3515625c.1425781,0,.2724609,0,.3378906-.1298828.0517578-.1171875.0517578-1.8720703.0517578-2.1582031,0-.4033203-.0517578-.480957-.3769531-.480957h-.3769531Zm.0654297-3.0551758c-.2080078,0-.3515625,0-.4033203.2080078-.0390625.1689453-.0390625,1.144043-.0390625,1.3911133,0,1.0009766,0,1.1176758.4287109,1.1176758h.2861328c.1826172,0,.3125,0,.3769531-.1557617.0390625-.1040039.0390625-.8188477.0390625-1.0009766,0-.2080078,0-1.2871094-.0390625-1.4042969-.0644531-.1557617-.2080078-.1557617-.3896484-.1557617h-.2597656Zm1.0400391,8.4760742c0,.5332031-.2607422.793457-.5595703.793457-.3115234,0-.3896484-.234375-.3896484-.6113281,0-.7148438,0-1.065918-.1171875-1.5732422-.0126953-.0776367-.1298828-.4160156-.1298828-.480957,0-.0258789,0-.0649414.0517578-.0649414.15625,0,.4550781.3378906.5976562.5073242.2216797.2856445.546875.8188477.546875,1.4296875Zm1.1699219-2.6518555c.1816406,0,.3378906,0,.3769531-.2080078.0390625-.1953125.0390625-1.1831055.0390625-1.4433594,0-.1948242,0-.8579102-.0390625-.9746094-.0517578-.1430664-.2080078-.1430664-.3642578-.1430664h-.3378906c-.4033203,0-.4033203.0649414-.4033203.6630859,0,.2988281,0,1.8198242.0517578,1.9628906.0527344.1430664.2080078.1430664.3642578.1430664h.3125Zm.0253906-3.1074219c.390625,0,.390625-.1035156.390625-.9619141,0-.1816406-.0263672-1.4428711-.0390625-1.5341797-.0390625-.2207031-.2080078-.2207031-.3769531-.2207031h-.3125c-.1425781,0-.3115234,0-.3642578.1557617-.0390625.1303711-.0390625,1.5600586-.0390625,1.8334961,0,.6367188,0,.7275391.390625.7275391h.3505859Zm1.9892578,5.8505859c0,.5327148-.2988281.6889648-.5195312.6889648-.15625,0-.3251953-.0522461-.4033203-.559082-.1044922-.6889648-.1816406-1.1572266-.4160156-1.6772461-.0126953-.0258789-.1435547-.2988281-.1435547-.324707,0-.0263672.0263672-.0522461.0527344-.0522461.1816406,0,.4941406.2602539.6630859.4033203.2597656.246582.7666016.8320312.7666016,1.5209961Zm-.4033203-8.5673828c-.1425781,0-.3378906,0-.3769531.1821289-.0390625.1557617-.0390625,1.7939453-.0390625,2.0668945,0,.3510742,0,.4677734.4033203.4677734h.390625c.3769531,0,.4023438-.1166992.4023438-.4418945,0-.1821289,0-2.027832-.0644531-2.1577148-.0527344-.1171875-.234375-.1171875-.3515625-.1171875h-.3642578Zm-.0126953,3.0551758c-.2988281,0-.3896484.0517578-.3896484.3769531v2.0668945c0,.3251953.1943359.3251953.4023438.3251953h.3779297c.1425781,0,.3115234,0,.3632812-.15625.0390625-.0908203.0390625-1.0268555.0390625-1.2216797,0-.2080078,0-1.144043-.0390625-1.2353516-.0517578-.1557617-.2207031-.1557617-.3632812-.1557617h-.390625Zm3.6796875,5.5512695c0,.1816406-.0390625.7407227-.5205078.7407227-.3115234,0-.3505859-.1298828-.5195312-.7407227-.1171875-.4033203-.4033203-1.1704102-.6113281-1.5732422-.0654297-.1171875-.1689453-.3120117-.1689453-.3769531,0-.0258789.0253906-.0390625.0390625-.0390625.1425781,0,.5332031.2729492.6494141.3642578.8583984.6367188,1.1318359,1.1699219,1.1318359,1.625Z"/>
        <path class="cls-1" d="m17.8950239,4.5629883c-.0771484,0-.3896484.0131836-.3896484.2211914,0,.0517578.0517578.1040039.1044922.1298828.7402344.3901367,2.0273438,1.3261719,2.0273438,2.0283203,0,.1816406-.1035156.5458984-.4677734.5458984-.2470703,0-.2988281-.15625-.4550781-.6499023-.3115234-.9750977-1.1181641-1.7163086-1.1699219-1.7163086-.0654297,0-.0654297.0390625-.0654297.2861328,0,.3120117.0263672,1.8330078.0263672,2.1708984.0126953.4941406.0517578,2.8862305.0517578,3.4321289,0,.5981445-.5585938.6889648-.6240234.6889648-.1552734,0-.3632812-.1166992-.3632812-.402832s.1035156-1.6899414.1162109-2.0019531c.0136719-.1689453.078125-2.4960938.078125-2.6132812,0-.0776367-.0253906-.1430664-.1171875-.1430664-.0644531,0-.0908203.0390625-.2851562.4160156-.5332031.9750977-1.6777344,2.5224609-1.8466797,2.5224609-.0253906,0-.0390625-.0131836-.0390625-.0390625,0-.0263672.1826172-.3510742.2216797-.4160156,1.4296875-2.7563477,1.6767578-4.0820312,1.6767578-4.1733398,0-.1166992-.078125-.2861328-.2988281-.2861328-.234375,0-.9492188.0390625-1.1699219.0522461-.0263672,0-.15625.0126953-.1826172.0126953-.0517578,0-.078125-.0258789-.1171875-.0776367l-.2470703-.2993164q-.0644531-.0649414-.0644531-.0908203c0-.0258789.0253906-.0258789.0517578-.0258789.0654297,0,.3896484.0390625.4677734.0390625.2470703.0126953,1.4306641.0517578,1.5996094.0517578.3115234,0,.3896484-.1166992.3896484-.3769531,0-.7412109-.0253906-2.0668945-.0517578-2.7563477-.0126953-.1425781-.0908203-.8056641-.0908203-.9487305,0-.0649414.0253906-.1430664.1035156-.1430664.0263672,0,1.2871094.2470703,1.2871094.480957,0,.0649414-.0253906.078125-.1298828.1821289-.1035156.078125-.2080078.1948242-.2861328.5332031,0,.0258789-.1171875,2.5478516-.1171875,2.6777344,0,.3510742.2470703.3510742.4550781.3510742.1435547,0,.4296875,0,.5332031-.0908203.078125-.078125.4423828-.6113281.5722656-.6113281.0644531,0,1.0136719.6889648,1.0136719.8710938,0,.1689453-.1425781.1689453-.4941406.1689453h-1.703125Zm-2.3007812-1.1176758c-.2597656,0-.2988281-.2080078-.4160156-.7802734-.1298828-.5981445-.4287109-1.0791016-.6240234-1.4038086-.0126953-.0263672-.0390625-.0649414-.0390625-.1040039,0-.0522461.0517578-.078125.0908203-.078125.2216797,0,1.5087891.9101562,1.5087891,1.7421875,0,.480957-.390625.6240234-.5205078.6240234Zm2.4960938.2207031c-.0126953,0-.0263672,0-.0263672-.0390625s.2470703-.5585938.2998047-.6630859c.2470703-.5717773.5585938-1.546875.5849609-2.0927734,0-.0390625.0126953-.1171875.078125-.1171875.1035156,0,1.0400391.637207,1.0400391.7802734,0,.078125-.078125.1298828-.1171875.1557617-.078125.0390625-.2861328.1430664-.4033203.2602539-.0390625.0390625-1.2998047,1.7158203-1.4560547,1.7158203Zm2.7041016,4.3554688c-.5585938.1166992-1.2480469.2729492-1.5986328.3769531-.0527344.0126953-.234375.078125-.2861328.078125-.0390625,0-.0654297-.0131836-.1044922-.0522461l-.3115234-.2470703q-.0654297-.0517578-.0654297-.078125c0-.0258789.0263672-.0258789.3515625-.0649414.0908203-.0126953,1.0791016-.1557617,2.0146484-.3510742l2.0283203-.4287109c.4033203-.0913086.4033203-.4418945.4033203-.4682617,0-2.3920898-.0654297-4.796875-.1308594-5.6420898-.0126953-.1430664-.1162109-.8188477-.1162109-.9619141,0-.0649414.0390625-.1171875.1035156-.1171875.078125,0,1.3388672.2211914,1.3388672.4418945,0,.078125-.2470703.3120117-.2861328.3642578-.0644531.1430664-.1162109.3510742-.1298828.4418945,0,.0522461-.0126953,2.0800781-.0126953,2.4443359,0,.5849609,0,2.5219727.0126953,2.9638672,0,.1171875.1171875.2211914.2470703.2211914.0517578,0,.2470703-.0390625.3125-.15625.078125-.1298828.3251953-.7670898.4550781-.7670898.0390625,0,1.1181641.5073242,1.1181641.715332,0,.1948242-.390625.2861328-.4550781.2988281l-1.3007812.2602539c-.2207031.0385742-.3505859.1948242-.3505859.4160156,0,.5458984.1298828,3.1069336.1298828,3.3798828,0,.4550781-.4160156.6630859-.6630859.6630859-.2207031,0-.3769531-.1689453-.3769531-.4291992,0-.1166992.0390625-.6757812.0390625-.7929688.0126953-.5327148.0517578-2.0019531.0517578-2.3662109,0-.3115234,0-.6367188-.3769531-.5585938l-2.0410156.4160156Zm.9365234-1.9633789c-.2734375,0-.3125-.1557617-.4033203-.4550781-.0654297-.2338867-.5332031-1.0917969-.8837891-1.4428711-.0654297-.0649414-.1298828-.1171875-.1298828-.1689453,0-.0390625.0517578-.0522461.0771484-.0522461.2080078,0,1.7685547.6630859,1.7685547,1.5864258,0,.5200195-.3642578.5327148-.4287109.5327148Zm.1162109-3.2631836c-.2460938,0-.3896484-.2856445-.4931641-.480957-.2080078-.402832-.3388672-.5200195-.7675781-.9228516-.0644531-.0649414-.078125-.078125-.078125-.1171875s.0263672-.0390625.0908203-.0390625c.0390625,0,1.6123047.2470703,1.6123047,1.0664062,0,.0517578,0,.4936523-.3642578.4936523Z"/>
      </g>
      <rect class="cls-1" x="0" y="19.3968527" width="27.7580566" height="1"/>
      <g>
        <path class="cls-1" d="m13.3120161,46.0385742c0,.1259766-.0634766.1259766-.6513672.2519531-.2314453.0419922-1.5957031.5878906-1.8896484.6928711-3.1699219,1.112793-5.3125,1.112793-5.5849609,1.112793-.1044922,0-.3359375,0-.3359375-.1049805s.1679688-.1679688.5039062-.2729492c1.7216797-.5249023,3.5693359-1.0917969,5.3544922-2.4145508.1464844-.1049805.671875-.6298828.8183594-.6298828.2304688,0,1.7851562,1.0917969,1.7851562,1.3647461Zm-6.1738281-9.4272461c0,.1889648.0214844.2519531.2734375.7768555.0839844.1889648.1679688.4619141.1679688.7138672,0,.7138672-.5878906.8608398-.9238281.8608398-.5664062,0-.9453125-.3779297-.9453125-1.0498047,0-.1469727.0839844-.7768555.0839844-.902832,0-.5878906-.1884766-.8608398-.5244141-1.2597656-.0634766-.0629883-.3779297-.3569336-.3779297-.3779297,0-.0629883.0419922-.0839844.1259766-.0839844.2314453.0629883.7763672.1679688.8603516.1679688.9453125,0,4.4726562-3.8212891,4.640625-3.8212891.0419922,0,.0839844,0,.0839844.0629883,0,.2099609-1.9941406,2.7924805-2.4355469,3.359375-.1259766.1679688-.7558594.8398438-.8613281,1.0078125-.1679688.230957-.1679688.4619141-.1679688.5458984Zm-1.8476562-6.8237305c2.015625,0,3.5068359,1.1547852,3.5068359,2.246582,0,.3779297-.2939453.7558594-.7978516.7558594-.4414062,0-.5458984-.1889648-.9023438-.8608398-.4199219-.7978516-1.3652344-1.7216797-1.890625-2.015625-.0625-.0209961-.125-.0629883-.125-.1049805.0205078-.0209961.1044922-.0209961.2089844-.0209961Zm12.2207031,7.5166016c.125,0,.3359375,0,.5244141-.1889648.3564453-.3779297.4404297-.4619141.5878906-.4619141.3359375,0,1.3642578.7348633,1.3642578,1.0708008,0,.1469727-.3984375.6928711-.4404297.8398438-.0634766.2519531-.0634766,2.2255859-.0634766,2.7294922,0,.4199219.1054688,2.4145508.1054688,2.8764648,0,1.0288086-1.0703125,1.0288086-1.0917969,1.0288086-.4414062,0-.5039062-.1889648-.5878906-.3779297-.0839844-.2519531-.2099609-.2519531-.4619141-.2519531h-7.1591797c-.2109375,0-.3359375,0-.4199219.1679688-.2109375.3989258-.3574219.6508789-1.0917969.6508789-.5673828,0-.5673828-.2099609-.5673828-.6298828,0-.6088867.0839844-3.590332.0839844-4.262207,0-.5458984-.1474609-3.3173828-.1474609-3.4223633,0-.2519531.0839844-.2939453.2314453-.2939453.2099609,0,1.1552734.3779297,1.3642578.440918.0839844,0,.3994141.0839844.5673828.0839844h7.2021484Zm-7.265625.5458984c-.5449219,0-.5449219.2729492-.5449219.8818359,0,.3989258,0,.6928711.5664062.6928711h7.2646484c.5244141,0,.5244141-.1889648.5244141-.9868164,0-.2519531,0-.5878906-.5244141-.5878906h-7.2861328Zm.0214844,2.1416016c-.5458984,0-.5458984.1679688-.5458984,1.0288086,0,.2939453,0,.6088867.5244141.6088867h7.2861328c.5244141,0,.5244141-.2099609.5244141-.9448242,0-.3779297,0-.6928711-.5039062-.6928711h-7.2851562Zm9.7001953-8.5244141c.1474609,0,.2724609-.0209961.3779297-.0629883.1259766-.0629883.609375-.5249023.734375-.5249023.1894531,0,1.7431641,1.1967773,1.7431641,1.5957031,0,.2939453-.2724609.3149414-.4619141.3149414-1.0292969,0-1.1337891,0-1.5742188.1259766-.2519531.0839844-1.5117188.671875-1.5117188.671875-.0214844,0-.0634766,0-.0634766-.0629883,0-.0839844.8603516-1.1337891.8603516-1.3857422,0-.1259766-.1044922-.1259766-.1884766-.1259766h-2.3515625c-.1679688,0-.2939453,0-.2939453.1679688,0,.0629883.9863281,2.6035156,4.8496094,4.2202148.1474609.0629883.7988281.2729492.9453125.3359375s.2519531.1259766.2519531.1889648c0,.1469727-.671875.2939453-.7773438.3569336-.2929688.1679688-.3359375.230957-.7128906.6928711-.0429688.0419922-.1054688.0839844-.1894531.0839844-.1679688,0-2.1210938-1.0078125-3.4853516-3.2543945-.4619141-.7348633-.9033203-1.5327148-1.2177734-2.3725586-.0214844-.0629883-.0625-.1049805-.1054688-.1049805-.0410156,0-.1884766.230957-.2089844.2729492-.3994141.7138672-1.5546875,2.7924805-4.3671875,3.7792969-.2949219.1049805-1.3867188.440918-1.7636719.440918-.0429688,0-.1474609,0-.1474609-.0839844,0-.0419922.3154297-.2099609.5039062-.2939453.7978516-.4199219,2.3310547-1.2807617,3.2548828-2.4355469.6083984-.7768555.9443359-1.5957031.9443359-1.8056641,0-.1889648-.1259766-.1889648-.2519531-.1889648h-1.1552734c-.4404297,0-.5878906.1469727-1.1757812.7348633-.9648438.9658203-1.40625,1.2177734-2.2675781,1.7426758-.2089844.1259766-.2724609.1469727-.3359375.1469727-.0205078,0-.0839844,0-.0839844-.0419922,0-.0209961.9873047-1.112793,1.0917969-1.2597656.5039062-.6298828,1.8691406-2.4355469,2.1425781-3.6953125.0625-.230957.1044922-.4829102.1884766-.4829102s2.015625.6088867,2.015625.9448242c0,.2099609-.1474609.2519531-.6083984.3989258-.2109375.0629883-.6308594.671875-.6308594.8188477s.1894531.1469727.3154297.1469727h5.7109375Zm-9.7001953,10.7290039c-.5039062,0-.5253906.2729492-.5253906.5668945,0,1.112793,0,1.2387695.5253906,1.2387695h7.2646484c.5039062,0,.5039062-.1259766.5039062-1.2807617,0-.1679688,0-.5249023-.5039062-.5249023h-7.2646484Zm4.9550781,2.6245117c.7773438,0,6.3408203.9868164,6.3408203,2.7924805,0,.3989258-.2099609.6928711-.6298828.6928711-.3359375,0-.3984375-.0419922-2.1621094-1.2387695-1.0078125-.671875-3.3808594-1.9316406-3.5488281-2.015625-.1259766-.0629883-.1894531-.1259766-.1679688-.1469727,0-.0629883.0625-.0839844.1679688-.0839844Z"/>
        <path class="cls-1" d="m10.3295942,64.1625977c-.125,0-.6289062.0209961-.6289062.3569336,0,.0839844.0839844.1679688.1679688.2099609,1.1962891.6298828,3.2753906,2.1416016,3.2753906,3.2753906,0,.2939453-.1679688.8818359-.7558594.8818359-.3994141,0-.4833984-.2519531-.7353516-1.0498047-.5039062-1.574707-1.8056641-2.7714844-1.8896484-2.7714844-.1054688,0-.1054688.0629883-.1054688.4619141,0,.5039062.0429688,2.9604492.0429688,3.5063477.0205078.7978516.0839844,4.6611328.0839844,5.5429688,0,.9658203-.9033203,1.112793-1.0078125,1.112793-.2519531,0-.5878906-.1889648-.5878906-.6508789s.1679688-2.7294922.1884766-3.2333984c.0205078-.2729492.1259766-4.03125.1259766-4.2202148,0-.1259766-.0419922-.230957-.1894531-.230957-.1044922,0-.1464844.0629883-.4609375.671875-.8613281,1.574707-2.7089844,4.0732422-2.9824219,4.0732422-.0410156,0-.0625-.0209961-.0625-.0629883s.2939453-.5668945.3574219-.671875c2.3085938-4.4511719,2.7080078-6.5927734,2.7080078-6.7397461,0-.1889648-.1259766-.4619141-.4833984-.4619141-.3769531,0-1.5322266.0629883-1.8886719.0839844-.0429688,0-.2519531.0209961-.2949219.0209961-.0839844,0-.125-.0419922-.1884766-.1259766l-.3994141-.4829102q-.1044922-.1049805-.1044922-.1469727c0-.0419922.0419922-.0419922.0839844-.0419922.1044922,0,.6298828.0629883.7558594.0629883.3994141.0209961,2.3095703.0839844,2.5830078.0839844.5039062,0,.6289062-.1889648.6289062-.6088867,0-1.1967773-.0410156-3.3383789-.0839844-4.4511719-.0205078-.230957-.1464844-1.3017578-.1464844-1.5327148,0-.1049805.0419922-.230957.1679688-.230957.0419922,0,2.078125.3989258,2.078125.7768555,0,.1049805-.0410156.1259766-.2089844.2939453-.1679688.1259766-.3359375.3149414-.4628906.8608398,0,.0419922-.1884766,4.1152344-.1884766,4.3251953,0,.5668945.3994141.5668945.7353516.5668945.2304688,0,.6923828,0,.8603516-.1469727.1259766-.1259766.7138672-.9868164.9238281-.9868164.1044922,0,1.6376953,1.112793,1.6376953,1.4067383,0,.2729492-.2304688.2729492-.7978516.2729492h-2.7509766Zm-3.7158203-1.8056641c-.4199219,0-.4833984-.3359375-.671875-1.2597656-.2099609-.9658203-.6923828-1.7426758-1.0078125-2.2675781-.0205078-.0419922-.0634766-.1049805-.0634766-.1679688,0-.0839844.0839844-.1259766.1474609-.1259766.3564453,0,2.4355469,1.4697266,2.4355469,2.8134766,0,.7768555-.6298828,1.0078125-.8398438,1.0078125Zm4.03125.3569336c-.0205078,0-.0419922,0-.0419922-.0629883s.3984375-.902832.4824219-1.0708008c.3994141-.9238281.9033203-2.4985352.9453125-3.3803711,0-.0629883.0214844-.1889648.1259766-.1889648.1679688,0,1.6796875,1.0288086,1.6796875,1.2597656,0,.1259766-.1259766.2099609-.1884766.2519531-.1269531.0629883-.4628906.230957-.6513672.4199219-.0634766.0629883-2.0996094,2.7714844-2.3515625,2.7714844Zm4.3671875,7.0336914c-.9033203.1889648-2.015625.440918-2.5830078.6088867-.0839844.0209961-.3769531.1259766-.4609375.1259766-.0634766,0-.1054688-.0209961-.1679688-.0839844l-.5039062-.3989258q-.1054688-.0839844-.1054688-.1259766c0-.0419922.0419922-.0419922.5664062-.1049805.1474609-.0209961,1.7431641-.2519531,3.2548828-.5668945l3.2753906-.6928711c.6513672-.1469727.6513672-.7138672.6513672-.7558594,0-3.8632812-.1054688-7.7475586-.2109375-9.1123047-.0205078-.230957-.1884766-1.3227539-.1884766-1.5537109,0-.1049805.0634766-.1889648.1679688-.1889648.1259766,0,2.1630859.3569336,2.1630859.7138672,0,.1259766-.3994141.5039062-.4628906.5878906-.1044922.230957-.1884766.5668945-.2089844.7138672,0,.0839844-.0214844,3.359375-.0214844,3.9472656,0,.9448242,0,4.0732422.0214844,4.7871094,0,.1889648.1884766.3569336.3984375.3569336.0839844,0,.3984375-.0629883.5039062-.2519531.1259766-.2099609.5253906-1.2387695.734375-1.2387695.0634766,0,1.8066406.8188477,1.8066406,1.1547852,0,.3149414-.6308594.4619141-.7353516.4829102l-2.0996094.4199219c-.3564453.0629883-.5673828.3149414-.5673828.671875,0,.8818359.2109375,5.0180664.2109375,5.4589844,0,.7348633-.671875,1.0708008-1.0712891,1.0708008-.3564453,0-.6083984-.2729492-.6083984-.6928711,0-.1889648.0625-1.0917969.0625-1.2807617.0214844-.8608398.0839844-3.2333984.0839844-3.8212891,0-.5039062,0-1.0288086-.609375-.902832l-3.2958984.671875Zm1.5117188-3.1704102c-.4404297,0-.5039062-.2519531-.6513672-.7348633-.1044922-.3779297-.8603516-1.7636719-1.4277344-2.3305664-.1044922-.1049805-.2089844-.1889648-.2089844-.2729492,0-.0629883.0839844-.0839844.125-.0839844.3359375,0,2.8554688,1.0708008,2.8554688,2.5615234,0,.8398438-.5878906.8608398-.6923828.8608398Zm.1884766-5.2700195c-.3984375,0-.6289062-.4619141-.796875-.7768555-.3359375-.6508789-.546875-.8398438-1.2392578-1.4907227-.1044922-.1049805-.1259766-.1259766-.1259766-.1889648s.0419922-.0629883.1464844-.0629883c.0634766,0,2.6035156.3989258,2.6035156,1.7216797,0,.0839844,0,.7978516-.5878906.7978516Z"/>
        <path class="cls-1" d="m9.1967817,88.6494141c.6503906,0,.7128906,0,.9023438-.1679688.1054688-.1049805.5039062-.7348633.6298828-.7348633.1474609,0,1.6376953.8818359,1.6376953,1.1757812s-.5458984.2939453-1.1542969.2939453h-4.03125c-.5253906,0-.8828125,0-1.5332031.0419922-.0839844.0209961-.3779297.0629883-.4414062.0629883-.0839844,0-.125-.0629883-.1884766-.1469727l-.4199219-.4829102c-.0634766-.0839844-.0839844-.1049805-.0839844-.1259766,0-.0419922.0205078-.0629883.0839844-.0629883.0839844,0,.5458984.0629883.6298828.0629883,1.28125.0839844,1.4277344.0839844,2.0576172.0839844h1.9111328Zm-.7353516,2.7504883c.6083984,0,.7138672,0,.9238281-.2939453.2099609-.3149414.3564453-.5039062.5039062-.5039062.2314453,0,1.2177734.7978516,1.2177734,1.0498047,0,.2939453-.4619141.2939453-1.1337891.2939453h-2.1630859c-.5244141,0-.8603516,0-1.5322266.0629883-.0634766,0-.3779297.0419922-.4404297.0419922-.0634766,0-.1054688-.0419922-.1894531-.1469727l-.3984375-.4619141c-.0839844-.1049805-.0839844-.1259766-.0839844-.1469727,0-.0419922.0205078-.0419922.0625-.0419922.1054688,0,.5458984.0419922.6503906.0419922,1.2597656.0839844,1.4072266.1049805,2.0371094.1049805h.5458984Zm-.0839844,2.8764648c.4199219,0,.5878906,0,.7558594-.230957.3154297-.440918.3564453-.4829102.4833984-.4829102.2304688,0,1.2597656.8188477,1.2597656,1.0078125,0,.2519531-.4199219.2729492-1.1552734.2729492h-1.8476562c-.4199219,0-1.6591797.1049805-1.7431641.1049805-.0625,0-.125-.0629883-.1884766-.1469727l-.4199219-.4829102c-.0634766-.0839844-.0839844-.1049805-.0839844-.1259766,0-.0419922.0205078-.0629883.0839844-.0629883.3779297,0,2.0996094.1469727,2.4560547.1469727h.3994141Zm.1884766,2.8554688c.1474609,0,.4199219.0209961.609375-.1889648.4199219-.440918.4414062-.5458984.5664062-.5458984.0634766,0,1.2392578.7558594,1.3652344.8608398.0839844.0629883.1054688.1049805.1054688.1889648,0,.1049805-.0839844.1889648-.2734375.3569336-.2099609.1889648-.2304688.3149414-.2304688.5878906,0,.440918.1044922,2.7294922.1044922,3.0864258,0,.5668945-.5244141.7978516-1.0498047.7978516-.3984375,0-.4414062-.1889648-.5039062-.5249023-.0625-.3149414-.3359375-.3149414-.6298828-.3149414h-.9238281c-.5878906,0-.5878906.2099609-.5878906,1.0917969,0,.6088867-.6083984.8398438-.9443359.8398438s-.546875-.1469727-.546875-.5878906c0-.1679688.0634766-1.4907227.0634766-1.7636719,0-.9658203-.0205078-2.3935547-.1259766-3.3383789-.0419922-.3989258-.1054688-.902832-.1054688-1.0078125,0-.0839844,0-.1679688.1894531-.1679688.3359375,0,.8818359.2729492,1.1757812.4199219.3984375.1889648.5458984.2099609.8183594.2099609h.9238281Zm-.3144531-11.421875c.7978516,0,.9023438-.0419922,1.1132812-.4829102.0205078-.0419922.1679688-.3779297.3769531-.3779297.2519531,0,1.3027344.8608398,1.3027344,1.112793,0,.3149414-.4414062.3149414-1.1347656.3149414h-2.140625c-.2519531,0-1.4277344.1049805-1.6171875.1049805-.0625,0-.1054688-.0629883-.1894531-.1469727l-.3984375-.4829102c-.0839844-.0839844-.0839844-.1049805-.0839844-.1259766,0-.0419922.0214844-.0629883.0625-.0629883.3789062,0,1.9951172.1469727,2.3310547.1469727h.3779297Zm.3779297,15.1801758c.671875,0,.671875-.1259766.671875-1.7426758,0-1.2387695,0-1.4487305-.671875-1.4487305h-.9238281c-.6513672,0-.6513672.1259766-.6513672,1.7426758,0,1.2387695,0,1.4487305.6513672,1.4487305h.9238281Zm7.4326172-9.3012695c.5458984,0,.5458984-.2939453.5458984-.8608398,0-.9658203,0-1.0917969-.6298828-1.0917969s-1.5537109.0209961-2.1416016.0629883c-.0634766,0-.3779297.0419922-.4404297.0419922-.0839844,0-.1269531-.0419922-.1894531-.1259766l-.3984375-.4829102q-.1054688-.1049805-.1054688-.1469727c0-.0419922.0419922-.0419922.0839844-.0419922.1259766,0,.7978516.0629883.9453125.0629883.3359375.0209961,2.015625.0839844,2.2675781.0839844.6083984,0,.6083984-.2099609.6083984-.9868164,0-.7558594-.2519531-.7558594-.6513672-.7558594-.6083984,0-2.015625,0-2.75.0629883-.0625,0-.3574219.0419922-.4414062.0419922-.0625,0-.1044922-.0419922-.1884766-.1259766l-.3994141-.4829102q-.0839844-.1049805-.0839844-.1469727c0-.0419922.0429688-.0419922.0634766-.0419922.1259766,0,.6513672.0419922.7763672.0629883.8193359.0419922,2.1835938.0839844,3.0029297.0839844.3564453,0,.6513672-.0209961.6513672-.5458984,0-.440918,0-.9658203-.0634766-1.3227539-.0419922-.2939453-.1259766-.5039062-.1259766-.5668945,0-.1259766.0625-.1679688.1679688-.1679688.1259766,0,2.1210938.3569336,2.1210938.8608398,0,.1469727-.0429688.1889648-.3154297.3779297-.3154297.2099609-.3154297.7348633-.3154297.8188477,0,.4829102.2734375.5458984.5673828.5458984h.6083984c.9453125,0,1.0917969,0,1.4277344-.5668945.2949219-.5249023.4414062-.6088867.609375-.6088867.2099609,0,1.5957031,1.0078125,1.5957031,1.4277344,0,.2939453-.3984375.2939453-1.1337891.2939453h-3.1279297c-.546875,0-.546875.3149414-.546875.6928711,0,.8818359,0,1.0498047.5878906,1.0498047h.3359375c.9667969,0,1.0712891,0,1.34375-.4829102.1894531-.3149414.2949219-.4199219.4199219-.4199219.0839844,0,1.34375.7138672,1.34375,1.1547852,0,.2939453-.3769531.2939453-1.1123047.2939453h-2.3310547c-.6083984,0-.6083984.2099609-.6083984,1.0498047,0,.6508789,0,.902832.5878906.902832h1.3642578c.9667969,0,1.0917969,0,1.4072266-.5668945.2314453-.3779297.3564453-.5458984.5039062-.5458984.1884766,0,1.7001953,1.1337891,1.7001953,1.3857422,0,.2729492-.4609375.2729492-1.1328125.2729492h-7.1181641c-.5039062,0-1.9316406,0-2.6455078.0629883-.0839844,0-.3779297.0419922-.4619141.0419922-.0634766,0-.1044922-.0419922-.1679688-.1259766l-.4199219-.4829102q-.0839844-.1049805-.0839844-.1469727c0-.0419922.0419922-.0419922.0634766-.0419922.1464844,0,.7763672.0629883.9238281.0629883.6083984.0419922,1.7001953.0839844,2.8964844.0839844h.609375Zm3.5273438,2.3935547c.4414062,0,.5878906-.0629883.7978516-.3359375.1884766-.2729492.2939453-.3569336.4199219-.3569336.0634766,0,1.6796875.671875,1.6796875,1.0288086,0,.0839844-.1679688.2519531-.4199219.5039062-.2939453.2939453-.2724609.3779297-.2724609,1.1967773,0,.7138672.1464844,4.1782227.1464844,4.9550781,0,2.5615234-1.7216797,2.6245117-1.9316406,2.6245117-.1894531,0-.2519531-.0419922-.3779297-.3149414-.2314453-.5249023-.7763672-.8818359-1.3232422-1.1547852-.1044922-.0419922-.734375-.1889648-.734375-.3149414,0-.1049805.1894531-.1049805.2519531-.1049805.2519531,0,1.5117188.0419922,1.8056641.0419922.6923828,0,.8818359,0,.8818359-.5249023v-1.5327148c0-.4199219-.0214844-.6298828-.5664062-.6298828h-4.7871094c-.5878906,0-.5878906.2939453-.5878906.6928711v1.5957031c0,.1049805.0839844.7138672.0839844.8608398,0,1.112793-.9453125,1.1547852-1.0292969,1.1547852-.4824219,0-.5039062-.3359375-.5039062-.6298828,0-.1469727.0419922-.8188477.0419922-.9868164.0419922-.7138672.0419922-3.5063477.0419922-4.472168,0-1.34375,0-2.3515625-.0625-2.8974609-.0214844-.1259766-.1269531-.7348633-.1269531-.8608398,0-.0839844.0429688-.1469727.1894531-.1469727.2734375,0,.9238281.2939453,1.2177734.4199219.3779297.1889648.671875.1889648.9033203.1889648h4.2617188Zm.3574219,2.1835938c.4609375,0,.5449219-.1679688.5449219-.6508789,0-.7768555,0-.9658203-.5664062-.9658203h-4.8085938c-.5449219,0-.5449219.1259766-.5449219,1.1337891,0,.4829102.3564453.4829102.5449219.4829102h4.8300781Zm.0205078,2.3515625c.5673828,0,.5673828-.230957.5673828-.671875,0-.9868164,0-1.112793-.5673828-1.112793h-4.8291016c-.2304688,0-.5664062,0-.5664062.440918,0,1.1967773,0,1.34375.5664062,1.34375h4.8291016Z"/>
        <path class="cls-1" d="m7.9575239,116.3359375c-.4833984,0-1.9111328,0-2.6455078.0629883-.0839844,0-.3779297.0419922-.4414062.0419922-.0839844,0-.125-.0419922-.1884766-.1469727l-.4199219-.4829102c-.0634766-.0839844-.0839844-.1049805-.0839844-.1259766,0-.0419922.0205078-.0419922.0839844-.0419922.1474609,0,.7978516.0629883.9238281.0629883.9658203.0419922,1.8896484.0629883,2.8759766.0629883h4.2832031c.3574219,0,.5878906-.1889648.5878906-.5458984,0-.1679688,0-1.112793-.1044922-2.0576172-.0205078-.1469727-.1679688-.8608398-.1679688-.9238281,0-.1889648.1044922-.230957.2099609-.230957.2304688,0,1.2382812.3569336,1.5742188.4829102.6308594.2519531.6933594.2729492.6933594.5458984,0,.1469727-.1054688.2099609-.3779297.4199219-.2939453.2099609-.2939453.3569336-.2939453.8188477,0,1.2387695,0,1.4907227.6933594,1.4907227h3.6523438c.609375,0,.9453125,0,1.1132812-.0839844.2519531-.1049805,1.0292969-1.2177734,1.28125-1.2177734.1464844,0,1.7636719,1.2807617,1.7636719,1.5537109,0,.3149414-.3994141.3149414-1.1347656.3149414h-6.8232422c-.3154297,0-.4404297.2729492-.4404297.5249023,0,.9868164,2.0361328,5.144043,2.6035156,5.144043.4199219,0,2.2041016-2.3305664,2.3300781-2.8134766.0419922-.1469727.0625-.5249023.0625-.6298828.0214844-.0839844.0839844-.1469727.1474609-.1469727.2099609,0,2.0996094,1.4277344,2.0996094,1.7636719,0,.230957-.2519531.2519531-.7978516.3359375-.3359375.0419922-2.6875,1.3857422-3.2128906,1.6376953-.1044922.0419922-.2519531.1259766-.2519531.3569336,0,.3149414,1.6171875,2.015625,3.0029297,3.1074219.4199219.3359375,1.5322266,1.1757812,2.8349609,1.4907227.0625,0,.3359375.0629883.3359375.1049805,0,.0629883-.0429688.0629883-.4833984.2099609-1.34375.440918-1.8056641,1.0708008-1.8896484,1.1547852-.1054688.1679688-.1679688.230957-.2519531.230957-.3144531,0-2.8769531-2.1416016-4.7871094-5.9208984-.734375-1.4697266-.8613281-1.784668-1.4902344-3.5273438-.0429688-.0839844-.1054688-.1049805-.1679688-.1049805-.0839844,0-.1474609.0629883-.1474609.1469727v2.0786133c0,1.1337891.1884766,6.4667969.1884766,7.2436523,0,.5039062,0,1.5117188-.9648438,2.0366211-.5039062.2729492-1.0292969.3149414-1.1972656.3149414-.2734375,0-.3144531-.0629883-.5664062-.6298828-.2734375-.5668945-1.1757812-1.112793-1.6386719-1.3017578-.0410156-.0209961-.2724609-.1259766-.2724609-.1469727,0-.0419922,0-.0839844.0839844-.0839844.1044922,0,1.5751953.1049805,1.8681641.1049805.7353516,0,.9033203-.0839844.9667969-.4199219.1044922-.440918.1044922-4.5771484.1044922-5.4589844,0-.9868164-.1044922-5.2910156-.1044922-6.1728516,0-.2729492,0-.6298828-.6308594-.6298828h-4.3876953Zm-1.3232422,11.9887695c-.1464844.3779297-.2089844.5668945-.4404297.5668945-.2519531,0-.7763672-.8188477-1.0712891-1.2387695-.125-.2099609-.671875-1.0498047-.671875-1.1547852,0-.230957.1679688-.2519531.3789062-.2519531.671875,0,1.1542969-.0419922,4.9550781-1.9736328.2724609-.1469727,1.6796875-.8818359,1.7207031-.8818359.0429688,0,.0839844.0209961.0839844.0839844,0,.3149414-4.4511719,4.0732422-4.5556641,4.1782227-.2314453.2519531-.3359375.4829102-.3994141.671875Zm2.8349609-6.1308594c-.3779297,0-.4199219-.0419922-1.2802734-1.5117188-.2734375-.4619141-.671875-.8818359-1.21875-1.3857422-.0839844-.0629883-.2304688-.230957-.2304688-.2729492,0-.0629883.0419922-.1049805.1054688-.1049805.0839844,0,.4824219.1049805.5664062.1259766.9453125.1889648,2.6455078.5458984,2.8974609,2.0366211.1259766.7138672-.4199219,1.112793-.8398438,1.112793Zm9.0068359-7.2646484c-.3144531,0-.3359375-.0209961-.9863281-1.112793-.1679688-.2939453-1.2177734-1.5957031-1.2177734-1.7006836,0-.0629883.0634766-.0839844.1044922-.0839844.1894531,0,.9667969.1469727,1.21875.2099609,1.0703125.2519531,1.8261719.7768555,1.8261719,1.784668,0,.5878906-.5878906.902832-.9453125.902832Z"/>
      </g>
    </g>
  </g>
</svg>